<?xml version="1.0" encoding="UTF-8"?>
<!--Generator: Apple Native CoreSVG 175-->
<!DOCTYPE svg
PUBLIC "-//W3C//DTD SVG 1.1//EN"
       "http://www.w3.org/Graphics/SVG/1.1/DTD/svg11.dtd">
<svg version="1.1" xmlns="http://www.w3.org/2000/svg" xmlns:xlink="http://www.w3.org/1999/xlink" width="3300" height="2200">
 <!--glyph: "uni100C4F.medium", point size: 100.0, font version: "17.0d12e1", template writer version: "65.1"-->
 <style>.multicolor-0:tintColor {fill:#007AFF;opacity:1.0}
.multicolor-1:white {fill:#FFFFFF;opacity:1.0}

.hierarchical-0:tertiary {fill:#8E8E8E}
.hierarchical-1:primary {fill:#212121}

.SFSymbolsPreview007AFF {fill:#007AFF;opacity:1.0}
.SFSymbolsPreviewFFFFFF {fill:#FFFFFF;opacity:1.0}
</style>
 <g id="Notes">
  <rect height="2200" id="artboard" style="fill:white;opacity:1" width="3300" x="0" y="0"/>
  <line style="fill:none;stroke:black;opacity:1;stroke-width:0.5;" x1="263" x2="3036" y1="292" y2="292"/>
  <text style="stroke:none;fill:black;font-family:sans-serif;font-size:13;font-weight:bold;" transform="matrix(1 0 0 1 263 322)">Weight/Scale Variations</text>
  <text style="stroke:none;fill:black;font-family:sans-serif;font-size:13;text-anchor:middle;" transform="matrix(1 0 0 1 559.711 322)">Ultralight</text>
  <text style="stroke:none;fill:black;font-family:sans-serif;font-size:13;text-anchor:middle;" transform="matrix(1 0 0 1 856.422 322)">Thin</text>
  <text style="stroke:none;fill:black;font-family:sans-serif;font-size:13;text-anchor:middle;" transform="matrix(1 0 0 1 1153.13 322)">Light</text>
  <text style="stroke:none;fill:black;font-family:sans-serif;font-size:13;text-anchor:middle;" transform="matrix(1 0 0 1 1449.84 322)">Regular</text>
  <text style="stroke:none;fill:black;font-family:sans-serif;font-size:13;text-anchor:middle;" transform="matrix(1 0 0 1 1746.56 322)">Medium</text>
  <text style="stroke:none;fill:black;font-family:sans-serif;font-size:13;text-anchor:middle;" transform="matrix(1 0 0 1 2043.27 322)">Semibold</text>
  <text style="stroke:none;fill:black;font-family:sans-serif;font-size:13;text-anchor:middle;" transform="matrix(1 0 0 1 2339.98 322)">Bold</text>
  <text style="stroke:none;fill:black;font-family:sans-serif;font-size:13;text-anchor:middle;" transform="matrix(1 0 0 1 2636.69 322)">Heavy</text>
  <text style="stroke:none;fill:black;font-family:sans-serif;font-size:13;text-anchor:middle;" transform="matrix(1 0 0 1 2933.4 322)">Black</text>
  <line style="fill:none;stroke:black;opacity:1;stroke-width:0.5;" x1="263" x2="3036" y1="1903" y2="1903"/>
  <g transform="matrix(1 0 0 1 263 1933)">
   <path d="M9.24805 0.830078Q10.8691 0.830078 12.2949 0.214844Q13.7207-0.400391 14.8096-1.49414Q15.8984-2.58789 16.5186-4.01367Q17.1387-5.43945 17.1387-7.05078Q17.1387-8.66211 16.5186-10.0879Q15.8984-11.5137 14.8047-12.6074Q13.7109-13.7012 12.2852-14.3164Q10.8594-14.9316 9.23828-14.9316Q7.62695-14.9316 6.20117-14.3164Q4.77539-13.7012 3.69141-12.6074Q2.60742-11.5137 1.9873-10.0879Q1.36719-8.66211 1.36719-7.05078Q1.36719-5.43945 1.9873-4.01367Q2.60742-2.58789 3.69629-1.49414Q4.78516-0.400391 6.21094 0.214844Q7.63672 0.830078 9.24805 0.830078ZM9.24805-0.654297Q7.91992-0.654297 6.7627-1.14746Q5.60547-1.64062 4.73145-2.51953Q3.85742-3.39844 3.36426-4.56055Q2.87109-5.72266 2.87109-7.05078Q2.87109-8.37891 3.35938-9.54102Q3.84766-10.7031 4.72168-11.582Q5.5957-12.4609 6.75293-12.9541Q7.91016-13.4473 9.23828-13.4473Q10.5762-13.4473 11.7334-12.9541Q12.8906-12.4609 13.7695-11.582Q14.6484-10.7031 15.1465-9.54102Q15.6445-8.37891 15.6445-7.05078Q15.6445-5.72266 15.1514-4.56055Q14.6582-3.39844 13.7842-2.51953Q12.9102-1.64062 11.748-1.14746Q10.5859-0.654297 9.24805-0.654297ZM5.6543-7.05078Q5.6543-6.72852 5.85938-6.52832Q6.06445-6.32812 6.40625-6.32812L8.51562-6.32812L8.51562-4.20898Q8.51562-3.88672 8.71094-3.67676Q8.90625-3.4668 9.23828-3.4668Q9.56055-3.4668 9.77051-3.67676Q9.98047-3.88672 9.98047-4.20898L9.98047-6.32812L12.0898-6.32812Q12.4219-6.32812 12.627-6.52832Q12.832-6.72852 12.832-7.05078Q12.832-7.38281 12.627-7.58789Q12.4219-7.79297 12.0898-7.79297L9.98047-7.79297L9.98047-9.90234Q9.98047-10.2344 9.77051-10.4443Q9.56055-10.6543 9.23828-10.6543Q8.90625-10.6543 8.71094-10.4443Q8.51562-10.2344 8.51562-9.90234L8.51562-7.79297L6.40625-7.79297Q6.06445-7.79297 5.85938-7.58789Q5.6543-7.38281 5.6543-7.05078Z"/>
  </g>
  <g transform="matrix(1 0 0 1 281.867 1933)">
   <path d="M11.709 2.91016Q13.75 2.91016 15.5518 2.12891Q17.3535 1.34766 18.7305-0.0292969Q20.1074-1.40625 20.8887-3.20801Q21.6699-5.00977 21.6699-7.05078Q21.6699-9.0918 20.8887-10.8936Q20.1074-12.6953 18.7305-14.0723Q17.3535-15.4492 15.5469-16.2305Q13.7402-17.0117 11.6992-17.0117Q9.6582-17.0117 7.85645-16.2305Q6.05469-15.4492 4.68262-14.0723Q3.31055-12.6953 2.5293-10.8936Q1.74805-9.0918 1.74805-7.05078Q1.74805-5.00977 2.5293-3.20801Q3.31055-1.40625 4.6875-0.0292969Q6.06445 1.34766 7.86621 2.12891Q9.66797 2.91016 11.709 2.91016ZM11.709 1.25Q9.98047 1.25 8.47656 0.605469Q6.97266-0.0390625 5.83496-1.17676Q4.69727-2.31445 4.05762-3.81836Q3.41797-5.32227 3.41797-7.05078Q3.41797-8.7793 4.05762-10.2832Q4.69727-11.7871 5.83008-12.9297Q6.96289-14.0723 8.4668-14.7119Q9.9707-15.3516 11.6992-15.3516Q13.4277-15.3516 14.9316-14.7119Q16.4355-14.0723 17.5781-12.9297Q18.7207-11.7871 19.3652-10.2832Q20.0098-8.7793 20.0098-7.05078Q20.0098-5.32227 19.3701-3.81836Q18.7305-2.31445 17.5928-1.17676Q16.4551-0.0390625 14.9463 0.605469Q13.4375 1.25 11.709 1.25ZM7.17773-7.05078Q7.17773-6.69922 7.41211-6.47461Q7.64648-6.25 8.01758-6.25L10.8887-6.25L10.8887-3.36914Q10.8887-2.99805 11.1133-2.76855Q11.3379-2.53906 11.6895-2.53906Q12.0605-2.53906 12.29-2.76855Q12.5195-2.99805 12.5195-3.36914L12.5195-6.25L15.4004-6.25Q15.7715-6.25 16.001-6.47461Q16.2305-6.69922 16.2305-7.05078Q16.2305-7.42188 16.001-7.65137Q15.7715-7.88086 15.4004-7.88086L12.5195-7.88086L12.5195-10.752Q12.5195-11.1328 12.29-11.3623Q12.0605-11.5918 11.6895-11.5918Q11.3379-11.5918 11.1133-11.3574Q10.8887-11.123 10.8887-10.752L10.8887-7.88086L8.01758-7.88086Q7.63672-7.88086 7.40723-7.65137Q7.17773-7.42188 7.17773-7.05078Z"/>
  </g>
  <g transform="matrix(1 0 0 1 305.646 1933)">
   <path d="M14.9707 5.66406Q17.0605 5.66406 18.96 5.01465Q20.8594 4.36523 22.4512 3.19336Q24.043 2.02148 25.2197 0.429688Q26.3965-1.16211 27.0459-3.06641Q27.6953-4.9707 27.6953-7.05078Q27.6953-9.14062 27.0459-11.04Q26.3965-12.9395 25.2197-14.5312Q24.043-16.123 22.4512-17.2998Q20.8594-18.4766 18.9551-19.126Q17.0508-19.7754 14.9609-19.7754Q12.8711-19.7754 10.9717-19.126Q9.07227-18.4766 7.48535-17.2998Q5.89844-16.123 4.72168-14.5312Q3.54492-12.9395 2.90039-11.04Q2.25586-9.14062 2.25586-7.05078Q2.25586-4.9707 2.90527-3.06641Q3.55469-1.16211 4.72656 0.429688Q5.89844 2.02148 7.49023 3.19336Q9.08203 4.36523 10.9814 5.01465Q12.8809 5.66406 14.9707 5.66406ZM14.9707 3.84766Q13.1641 3.84766 11.5283 3.2959Q9.89258 2.74414 8.53516 1.74805Q7.17773 0.751953 6.17676-0.610352Q5.17578-1.97266 4.62891-3.6084Q4.08203-5.24414 4.08203-7.05078Q4.08203-8.86719 4.62891-10.5029Q5.17578-12.1387 6.17188-13.501Q7.16797-14.8633 8.52539-15.8594Q9.88281-16.8555 11.5186-17.4023Q13.1543-17.9492 14.9609-17.9492Q16.7773-17.9492 18.4131-17.4023Q20.0488-16.8555 21.4111-15.8594Q22.7734-14.8633 23.7695-13.501Q24.7656-12.1387 25.3174-10.5029Q25.8691-8.86719 25.8691-7.05078Q25.8789-5.24414 25.332-3.6084Q24.7852-1.97266 23.7842-0.610352Q22.7832 0.751953 21.4209 1.74805Q20.0586 2.74414 18.4229 3.2959Q16.7871 3.84766 14.9707 3.84766ZM9.19922-7.05078Q9.19922-6.66992 9.45801-6.4209Q9.7168-6.17188 10.1172-6.17188L14.0625-6.17188L14.0625-2.2168Q14.0625-1.81641 14.3115-1.55762Q14.5605-1.29883 14.9512-1.29883Q15.3516-1.29883 15.6104-1.55273Q15.8691-1.80664 15.8691-2.2168L15.8691-6.17188L19.8242-6.17188Q20.2246-6.17188 20.4785-6.4209Q20.7324-6.66992 20.7324-7.05078Q20.7324-7.46094 20.4785-7.71484Q20.2246-7.96875 19.8242-7.96875L15.8691-7.96875L15.8691-11.9141Q15.8691-12.3242 15.6104-12.583Q15.3516-12.8418 14.9512-12.8418Q14.5605-12.8418 14.3115-12.583Q14.0625-12.3242 14.0625-11.9141L14.0625-7.96875L10.1172-7.96875Q9.70703-7.96875 9.45312-7.71484Q9.19922-7.46094 9.19922-7.05078Z"/>
  </g>
  <text style="stroke:none;fill:black;font-family:sans-serif;font-size:13;font-weight:bold;" transform="matrix(1 0 0 1 263 1953)">Design Variations</text>
  <text style="stroke:none;fill:black;font-family:sans-serif;font-size:13;" transform="matrix(1 0 0 1 263 1971)">Symbols are supported in up to nine weights and three scales.</text>
  <text style="stroke:none;fill:black;font-family:sans-serif;font-size:13;" transform="matrix(1 0 0 1 263 1989)">For optimal layout with text and other symbols, vertically align</text>
  <text style="stroke:none;fill:black;font-family:sans-serif;font-size:13;" transform="matrix(1 0 0 1 263 2007)">symbols with the adjacent text.</text>
  <line style="fill:none;stroke:#00AEEF;stroke-width:0.5;opacity:1.0;" x1="776" x2="776" y1="1919" y2="1933"/>
  <g transform="matrix(1 0 0 1 776 1933)">
   <path d="M3.31055 0.15625Q3.70117 0.15625 3.91602-0.00976562Q4.13086-0.175781 4.26758-0.585938L5.52734-4.0332L11.2891-4.0332L12.5488-0.585938Q12.6855-0.175781 12.9004-0.00976562Q13.1152 0.15625 13.4961 0.15625Q13.8867 0.15625 14.1162-0.0585938Q14.3457-0.273438 14.3457-0.644531Q14.3457-0.869141 14.2383-1.17188L9.6582-13.3691Q9.48242-13.8184 9.17969-14.043Q8.87695-14.2676 8.4082-14.2676Q7.5-14.2676 7.17773-13.3789L2.59766-1.16211Q2.49023-0.859375 2.49023-0.634766Q2.49023-0.263672 2.70996-0.0537109Q2.92969 0.15625 3.31055 0.15625ZM6.00586-5.51758L8.37891-12.0898L8.42773-12.0898L10.8008-5.51758Z"/>
  </g>
  <line style="fill:none;stroke:#00AEEF;stroke-width:0.5;opacity:1.0;" x1="793.197" x2="793.197" y1="1919" y2="1933"/>
  <text style="stroke:none;fill:black;font-family:sans-serif;font-size:13;font-weight:bold;" transform="matrix(1 0 0 1 776 1953)">Margins</text>
  <text style="stroke:none;fill:black;font-family:sans-serif;font-size:13;" transform="matrix(1 0 0 1 776 1971)">Leading and trailing margins on the left and right side of each symbol</text>
  <text style="stroke:none;fill:black;font-family:sans-serif;font-size:13;" transform="matrix(1 0 0 1 776 1989)">can be adjusted by modifying the x-location of the margin guidelines.</text>
  <text style="stroke:none;fill:black;font-family:sans-serif;font-size:13;" transform="matrix(1 0 0 1 776 2007)">Modifications are automatically applied proportionally to all</text>
  <text style="stroke:none;fill:black;font-family:sans-serif;font-size:13;" transform="matrix(1 0 0 1 776 2025)">scales and weights.</text>
  <g transform="matrix(1 0 0 1 1289 1933)">
   <path d="M2.8418 1.86523L4.54102 3.57422Q5.18555 4.22852 5.90332 4.17969Q6.62109 4.13086 7.31445 3.35938L18.0078-8.42773L17.041-9.4043L6.42578 2.27539Q6.16211 2.57812 5.89355 2.61719Q5.625 2.65625 5.27344 2.30469L4.10156 1.14258Q3.75 0.791016 3.79395 0.522461Q3.83789 0.253906 4.14062-0.0195312L15.6152-10.8203L14.6387-11.7871L3.04688-0.898438Q2.30469-0.214844 2.25098 0.498047Q2.19727 1.21094 2.8418 1.86523ZM9.25781-16.3281Q8.94531-16.0254 8.90625-15.6348Q8.86719-15.2441 9.04297-14.9512Q9.21875-14.6777 9.55566-14.541Q9.89258-14.4043 10.3809-14.5215Q11.4746-14.7754 12.5977-14.7314Q13.7207-14.6875 14.7949-13.9844L14.209-12.5293Q13.9551-11.9043 14.0674-11.4404Q14.1797-10.9766 14.5801-10.5664L16.875-8.25195Q17.2363-7.88086 17.5781-7.82227Q17.9199-7.76367 18.3398-7.8418L19.4043-8.03711L20.0684-7.36328L20.0293-6.80664Q20-6.43555 20.1221-6.12305Q20.2441-5.81055 20.6055-5.44922L21.3672-4.70703Q21.7285-4.3457 22.1533-4.33105Q22.5781-4.31641 22.9297-4.66797L25.8398-7.58789Q26.1914-7.93945 26.1816-8.35449Q26.1719-8.76953 25.8105-9.13086L25.0391-9.89258Q24.6875-10.2539 24.3799-10.3857Q24.0723-10.5176 23.7109-10.4883L23.1348-10.4395L22.4902-11.0742L22.7344-12.1973Q22.832-12.6172 22.6953-12.9834Q22.5586-13.3496 22.1191-13.7891L19.9219-15.9766Q18.6719-17.2168 17.2607-17.8369Q15.8496-18.457 14.4189-18.4814Q12.9883-18.5059 11.665-17.959Q10.3418-17.4121 9.25781-16.3281ZM10.752-15.957Q11.6602-16.6211 12.7002-16.9043Q13.7402-17.1875 14.8047-17.085Q15.8691-16.9824 16.8701-16.5137Q17.8711-16.0449 18.7012-15.2051L21.1328-12.793Q21.3086-12.6172 21.3525-12.4512Q21.3965-12.2852 21.3379-12.0312L21.0156-10.5469L22.5195-9.0625L23.5059-9.12109Q23.6914-9.13086 23.7891-9.09668Q23.8867-9.0625 24.0332-8.91602L24.6094-8.33984L22.168-5.89844L21.5918-6.47461Q21.4453-6.62109 21.4062-6.71875Q21.3672-6.81641 21.377-7.01172L21.4453-7.98828L19.9512-9.47266L18.4277-9.21875Q18.1836-9.16992 18.042-9.2041Q17.9004-9.23828 17.7148-9.41406L15.7129-11.416Q15.5176-11.5918 15.4932-11.7529Q15.4688-11.9141 15.5859-12.1875L16.4648-14.2773Q15.293-15.3711 13.8281-15.791Q12.3633-16.2109 10.8398-15.7617Q10.7227-15.7324 10.6885-15.8057Q10.6543-15.8789 10.752-15.957Z"/>
  </g>
  <text style="stroke:none;fill:black;font-family:sans-serif;font-size:13;font-weight:bold;" transform="matrix(1 0 0 1 1289 1953)">Exporting</text>
  <text style="stroke:none;fill:black;font-family:sans-serif;font-size:13;" transform="matrix(1 0 0 1 1289 1971)">Symbols should be outlined when exporting to ensure the</text>
  <text style="stroke:none;fill:black;font-family:sans-serif;font-size:13;" transform="matrix(1 0 0 1 1289 1989)">design is preserved when submitting to Xcode.</text>
  <text id="template-version" style="stroke:none;fill:black;font-family:sans-serif;font-size:13;text-anchor:end;" transform="matrix(1 0 0 1 3036 1933)">Template v.3.0</text>
  <text style="stroke:none;fill:black;font-family:sans-serif;font-size:13;text-anchor:end;" transform="matrix(1 0 0 1 3036 1951)">Requires Xcode 13 or greater</text>
  <text id="descriptive-name" style="stroke:none;fill:black;font-family:sans-serif;font-size:13;text-anchor:end;" transform="matrix(1 0 0 1 3036 1969)">Generated from arrow.uturn.backward.circle.fill</text>
  <text style="stroke:none;fill:black;font-family:sans-serif;font-size:13;text-anchor:end;" transform="matrix(1 0 0 1 3036 1987)">Typeset at 100 points</text>
  <text style="stroke:none;fill:black;font-family:sans-serif;font-size:13;" transform="matrix(1 0 0 1 263 726)">Small</text>
  <text style="stroke:none;fill:black;font-family:sans-serif;font-size:13;" transform="matrix(1 0 0 1 263 1156)">Medium</text>
  <text style="stroke:none;fill:black;font-family:sans-serif;font-size:13;" transform="matrix(1 0 0 1 263 1586)">Large</text>
 </g>
 <g id="Guides">
  <g id="H-reference" style="fill:#27AAE1;stroke:none;" transform="matrix(1 0 0 1 339 696)">
   <path d="M0.976562 0L3.66211 0L29.3457-67.1387L30.0293-67.1387L30.0293-70.459L28.125-70.459ZM11.6699-24.4629L46.9727-24.4629L46.2402-26.709L12.4512-26.709ZM55.127 0L57.7637 0L30.6152-70.459L29.4434-70.459L29.4434-67.1387Z"/>
  </g>
  <line id="Baseline-S" style="fill:none;stroke:#27AAE1;opacity:1;stroke-width:0.5;" x1="263" x2="3036" y1="696" y2="696"/>
  <line id="Capline-S" style="fill:none;stroke:#27AAE1;opacity:1;stroke-width:0.5;" x1="263" x2="3036" y1="625.541" y2="625.541"/>
  <g id="H-reference" style="fill:#27AAE1;stroke:none;" transform="matrix(1 0 0 1 339 1126)">
   <path d="M0.976562 0L3.66211 0L29.3457-67.1387L30.0293-67.1387L30.0293-70.459L28.125-70.459ZM11.6699-24.4629L46.9727-24.4629L46.2402-26.709L12.4512-26.709ZM55.127 0L57.7637 0L30.6152-70.459L29.4434-70.459L29.4434-67.1387Z"/>
  </g>
  <line id="Baseline-M" style="fill:none;stroke:#27AAE1;opacity:1;stroke-width:0.5;" x1="263" x2="3036" y1="1126" y2="1126"/>
  <line id="Capline-M" style="fill:none;stroke:#27AAE1;opacity:1;stroke-width:0.5;" x1="263" x2="3036" y1="1055.54" y2="1055.54"/>
  <g id="H-reference" style="fill:#27AAE1;stroke:none;" transform="matrix(1 0 0 1 339 1556)">
   <path d="M0.976562 0L3.66211 0L29.3457-67.1387L30.0293-67.1387L30.0293-70.459L28.125-70.459ZM11.6699-24.4629L46.9727-24.4629L46.2402-26.709L12.4512-26.709ZM55.127 0L57.7637 0L30.6152-70.459L29.4434-70.459L29.4434-67.1387Z"/>
  </g>
  <line id="Baseline-L" style="fill:none;stroke:#27AAE1;opacity:1;stroke-width:0.5;" x1="263" x2="3036" y1="1556" y2="1556"/>
  <line id="Capline-L" style="fill:none;stroke:#27AAE1;opacity:1;stroke-width:0.5;" x1="263" x2="3036" y1="1485.54" y2="1485.54"/>
  <line id="left-margin-Ultralight-S" style="fill:none;stroke:#00AEEF;stroke-width:0.5;opacity:1.0;" x1="515.644" x2="515.644" y1="600.785" y2="720.121"/>
  <line id="right-margin-Ultralight-S" style="fill:none;stroke:#00AEEF;stroke-width:0.5;opacity:1.0;" x1="603.778" x2="603.778" y1="600.785" y2="720.121"/>
  <line id="left-margin-Thin-S" style="fill:none;stroke:#00AEEF;stroke-width:0.5;opacity:1.0;" x1="811.867" x2="811.867" y1="600.785" y2="720.121"/>
  <line id="right-margin-Thin-S" style="fill:none;stroke:#00AEEF;stroke-width:0.5;opacity:1.0;" x1="900.978" x2="900.978" y1="600.785" y2="720.121"/>
  <line id="left-margin-Light-S" style="fill:none;stroke:#00AEEF;stroke-width:0.5;opacity:1.0;" x1="1107.6" x2="1107.6" y1="600.785" y2="720.121"/>
  <line id="right-margin-Light-S" style="fill:none;stroke:#00AEEF;stroke-width:0.5;opacity:1.0;" x1="1198.67" x2="1198.67" y1="600.785" y2="720.121"/>
  <line id="left-margin-Regular-S" style="fill:none;stroke:#00AEEF;stroke-width:0.5;opacity:1.0;" x1="1403.58" x2="1403.58" y1="600.785" y2="720.121"/>
  <line id="right-margin-Regular-S" style="fill:none;stroke:#00AEEF;stroke-width:0.5;opacity:1.0;" x1="1496.11" x2="1496.11" y1="600.785" y2="720.121"/>
  <line id="left-margin-Medium-S" style="fill:none;stroke:#00AEEF;stroke-width:0.5;opacity:1.0;" x1="1699.83" x2="1699.83" y1="600.785" y2="720.121"/>
  <line id="right-margin-Medium-S" style="fill:none;stroke:#00AEEF;stroke-width:0.5;opacity:1.0;" x1="1793.28" x2="1793.28" y1="600.785" y2="720.121"/>
  <line id="left-margin-Semibold-S" style="fill:none;stroke:#00AEEF;stroke-width:0.5;opacity:1.0;" x1="1996.2" x2="1996.2" y1="600.785" y2="720.121"/>
  <line id="right-margin-Semibold-S" style="fill:none;stroke:#00AEEF;stroke-width:0.5;opacity:1.0;" x1="2090.34" x2="2090.34" y1="600.785" y2="720.121"/>
  <line id="left-margin-Bold-S" style="fill:none;stroke:#00AEEF;stroke-width:0.5;opacity:1.0;" x1="2292.42" x2="2292.42" y1="600.785" y2="720.121"/>
  <line id="right-margin-Bold-S" style="fill:none;stroke:#00AEEF;stroke-width:0.5;opacity:1.0;" x1="2387.54" x2="2387.54" y1="600.785" y2="720.121"/>
  <line id="left-margin-Heavy-S" style="fill:none;stroke:#00AEEF;stroke-width:0.5;opacity:1.0;" x1="2588.47" x2="2588.47" y1="600.785" y2="720.121"/>
  <line id="right-margin-Heavy-S" style="fill:none;stroke:#00AEEF;stroke-width:0.5;opacity:1.0;" x1="2684.91" x2="2684.91" y1="600.785" y2="720.121"/>
  <line id="left-margin-Black-S" style="fill:none;stroke:#00AEEF;stroke-width:0.5;opacity:1.0;" x1="2884.57" x2="2884.57" y1="600.785" y2="720.121"/>
  <line id="right-margin-Black-S" style="fill:none;stroke:#00AEEF;stroke-width:0.5;opacity:1.0;" x1="2982.23" x2="2982.23" y1="600.785" y2="720.121"/>
  <line id="left-margin-Ultralight-M" style="fill:none;stroke:#00AEEF;stroke-width:0.5;opacity:1.0;" x1="503.632" x2="503.632" y1="1030.79" y2="1150.12"/>
  <line id="right-margin-Ultralight-M" style="fill:none;stroke:#00AEEF;stroke-width:0.5;opacity:1.0;" x1="615.79" x2="615.79" y1="1030.79" y2="1150.12"/>
  <line id="left-margin-Thin-M" style="fill:none;stroke:#00AEEF;stroke-width:0.5;opacity:1.0;" x1="799.782" x2="799.782" y1="1030.79" y2="1150.12"/>
  <line id="right-margin-Thin-M" style="fill:none;stroke:#00AEEF;stroke-width:0.5;opacity:1.0;" x1="913.063" x2="913.063" y1="1030.79" y2="1150.12"/>
  <line id="left-margin-Light-M" style="fill:none;stroke:#00AEEF;stroke-width:0.5;opacity:1.0;" x1="1095.42" x2="1095.42" y1="1030.79" y2="1150.12"/>
  <line id="right-margin-Light-M" style="fill:none;stroke:#00AEEF;stroke-width:0.5;opacity:1.0;" x1="1210.85" x2="1210.85" y1="1030.79" y2="1150.12"/>
  <line id="left-margin-Regular-M" style="fill:none;stroke:#00AEEF;stroke-width:0.5;opacity:1.0;" x1="1391.3" x2="1391.3" y1="1030.79" y2="1150.12"/>
  <line id="right-margin-Regular-M" style="fill:none;stroke:#00AEEF;stroke-width:0.5;opacity:1.0;" x1="1508.39" x2="1508.39" y1="1030.79" y2="1150.12"/>
  <line id="left-margin-Medium-M" style="fill:none;stroke:#00AEEF;stroke-width:0.5;opacity:1.0;" x1="1687.38" x2="1687.38" y1="1030.79" y2="1150.12"/>
  <line id="right-margin-Medium-M" style="fill:none;stroke:#00AEEF;stroke-width:0.5;opacity:1.0;" x1="1805.74" x2="1805.74" y1="1030.79" y2="1150.12"/>
  <line id="left-margin-Semibold-M" style="fill:none;stroke:#00AEEF;stroke-width:0.5;opacity:1.0;" x1="1983.6" x2="1983.6" y1="1030.79" y2="1150.12"/>
  <line id="right-margin-Semibold-M" style="fill:none;stroke:#00AEEF;stroke-width:0.5;opacity:1.0;" x1="2102.93" x2="2102.93" y1="1030.79" y2="1150.12"/>
  <line id="left-margin-Bold-M" style="fill:none;stroke:#00AEEF;stroke-width:0.5;opacity:1.0;" x1="2279.65" x2="2279.65" y1="1030.79" y2="1150.12"/>
  <line id="right-margin-Bold-M" style="fill:none;stroke:#00AEEF;stroke-width:0.5;opacity:1.0;" x1="2400.3" x2="2400.3" y1="1030.79" y2="1150.12"/>
  <line id="left-margin-Heavy-M" style="fill:none;stroke:#00AEEF;stroke-width:0.5;opacity:1.0;" x1="2575.43" x2="2575.43" y1="1030.79" y2="1150.12"/>
  <line id="right-margin-Heavy-M" style="fill:none;stroke:#00AEEF;stroke-width:0.5;opacity:1.0;" x1="2697.94" x2="2697.94" y1="1030.79" y2="1150.12"/>
  <line id="left-margin-Black-M" style="fill:none;stroke:#00AEEF;stroke-width:0.5;opacity:1.0;" x1="2871.32" x2="2871.32" y1="1030.79" y2="1150.12"/>
  <line id="right-margin-Black-M" style="fill:none;stroke:#00AEEF;stroke-width:0.5;opacity:1.0;" x1="2995.48" x2="2995.48" y1="1030.79" y2="1150.12"/>
  <line id="left-margin-Ultralight-L" style="fill:none;stroke:#00AEEF;stroke-width:0.5;opacity:1.0;" x1="487.592" x2="487.592" y1="1460.79" y2="1580.12"/>
  <line id="right-margin-Ultralight-L" style="fill:none;stroke:#00AEEF;stroke-width:0.5;opacity:1.0;" x1="631.83" x2="631.83" y1="1460.79" y2="1580.12"/>
  <line id="left-margin-Thin-L" style="fill:none;stroke:#00AEEF;stroke-width:0.5;opacity:1.0;" x1="783.693" x2="783.693" y1="1460.79" y2="1580.12"/>
  <line id="right-margin-Thin-L" style="fill:none;stroke:#00AEEF;stroke-width:0.5;opacity:1.0;" x1="929.152" x2="929.152" y1="1460.79" y2="1580.12"/>
  <line id="left-margin-Light-L" style="fill:none;stroke:#00AEEF;stroke-width:0.5;opacity:1.0;" x1="1079.18" x2="1079.18" y1="1460.79" y2="1580.12"/>
  <line id="right-margin-Light-L" style="fill:none;stroke:#00AEEF;stroke-width:0.5;opacity:1.0;" x1="1227.08" x2="1227.08" y1="1460.79" y2="1580.12"/>
  <line id="left-margin-Regular-L" style="fill:none;stroke:#00AEEF;stroke-width:0.5;opacity:1.0;" x1="1374.97" x2="1374.97" y1="1460.79" y2="1580.12"/>
  <line id="right-margin-Regular-L" style="fill:none;stroke:#00AEEF;stroke-width:0.5;opacity:1.0;" x1="1524.72" x2="1524.72" y1="1460.79" y2="1580.12"/>
  <line id="left-margin-Medium-L" style="fill:none;stroke:#00AEEF;stroke-width:0.5;opacity:1.0;" x1="1670.87" x2="1670.87" y1="1460.79" y2="1580.12"/>
  <line id="right-margin-Medium-L" style="fill:none;stroke:#00AEEF;stroke-width:0.5;opacity:1.0;" x1="1822.24" x2="1822.24" y1="1460.79" y2="1580.12"/>
  <line id="left-margin-Semibold-L" style="fill:none;stroke:#00AEEF;stroke-width:0.5;opacity:1.0;" x1="1966.97" x2="1966.97" y1="1460.79" y2="1580.12"/>
  <line id="right-margin-Semibold-L" style="fill:none;stroke:#00AEEF;stroke-width:0.5;opacity:1.0;" x1="2119.56" x2="2119.56" y1="1460.79" y2="1580.12"/>
  <line id="left-margin-Bold-L" style="fill:none;stroke:#00AEEF;stroke-width:0.5;opacity:1.0;" x1="2262.85" x2="2262.85" y1="1460.79" y2="1580.12"/>
  <line id="right-margin-Bold-L" style="fill:none;stroke:#00AEEF;stroke-width:0.5;opacity:1.0;" x1="2417.1" x2="2417.1" y1="1460.79" y2="1580.12"/>
  <line id="left-margin-Heavy-L" style="fill:none;stroke:#00AEEF;stroke-width:0.5;opacity:1.0;" x1="2558.39" x2="2558.39" y1="1460.79" y2="1580.12"/>
  <line id="right-margin-Heavy-L" style="fill:none;stroke:#00AEEF;stroke-width:0.5;opacity:1.0;" x1="2714.98" x2="2714.98" y1="1460.79" y2="1580.12"/>
  <line id="left-margin-Black-L" style="fill:none;stroke:#00AEEF;stroke-width:0.5;opacity:1.0;" x1="2854.05" x2="2854.05" y1="1460.79" y2="1580.12"/>
  <line id="right-margin-Black-L" style="fill:none;stroke:#00AEEF;stroke-width:0.5;opacity:1.0;" x1="3012.75" x2="3012.75" y1="1460.79" y2="1580.12"/>
 </g>
 <g id="Symbols">
  <g id="Black-L" transform="matrix(1 0 0 1 2854.05 1556)">
   <path class="multicolor-0:tintColor hierarchical-0:tertiary SFSymbolsPreview007AFF" d="M79.3457 32.1289Q90.5762 32.1289 100.757 28.6621Q110.938 25.1953 119.458 18.9453Q127.979 12.6953 134.229 4.1748Q140.479-4.3457 143.945-14.5264Q147.412-24.707 147.412-35.9375Q147.412-47.168 143.945-57.3486Q140.479-67.5293 134.204-76.0498Q127.93-84.5703 119.434-90.8447Q110.938-97.1191 100.732-100.562Q90.5273-104.004 79.2969-104.004Q68.1152-104.004 57.9102-100.562Q47.7051-97.1191 39.209-90.8447Q30.7129-84.5703 24.4385-76.0498Q18.1641-67.5293 14.7217-57.3486Q11.2793-47.168 11.2793-35.9375Q11.2793-24.707 14.7217-14.5264Q18.1641-4.3457 24.4385 4.1748Q30.7129 12.6953 39.2334 18.9453Q47.7539 25.1953 57.9346 28.6621Q68.1152 32.1289 79.3457 32.1289Z"/>
   <path class="multicolor-1:white hierarchical-1:primary SFSymbolsPreviewFFFFFF" d="M113.33-27.5391Q113.33-19.3848 109.937-13.2568Q106.543-7.12891 100.391-3.75977Q94.2383-0.390625 86.084-0.390625L76.4648-0.390625Q72.998-0.390625 70.8984-2.31934Q68.7988-4.24805 68.7988-7.37305Q68.7988-10.4004 70.9229-12.2803Q73.0469-14.1602 76.4648-14.1602L86.084-14.1602Q92.041-14.1602 95.6787-17.8223Q99.3164-21.4844 99.3164-27.5391Q99.3164-33.4473 95.6787-37.1094Q92.041-40.7715 85.9863-40.7715L67.334-40.7715L62.793-41.2109L66.3574-38.8184L72.6562-33.7891Q74.707-32.0801 74.707-29.541Q74.707-26.9043 72.7539-24.9756Q70.8008-23.0469 68.3105-23.0469Q65.625-23.0469 63.8672-24.8535L45.9473-42.9199Q43.9941-44.9707 43.9941-47.6074Q43.9941-50.0977 45.9473-52.1484L63.8672-70.2637Q65.6738-72.1191 68.1641-72.1191Q70.6543-72.1191 72.6318-70.1904Q74.6094-68.2617 74.6094-65.7227Q74.6094-63.1348 72.6562-61.4258L66.7969-56.2012L62.7441-53.3203L67.334-53.8086L85.9863-53.8086Q94.1895-53.8086 100.342-50.5127Q106.494-47.2168 109.912-41.3086Q113.33-35.4004 113.33-27.5391Z"/>
  </g>
  <g id="Heavy-L" transform="matrix(1 0 0 1 2558.39 1556)">
   <path class="multicolor-0:tintColor hierarchical-0:tertiary SFSymbolsPreview007AFF" d="M78.2715 31.0547Q89.3555 31.0547 99.3652 27.6367Q109.375 24.2188 117.749 18.0664Q126.123 11.9141 132.3 3.51562Q138.477-4.88281 141.895-14.8926Q145.312-24.9023 145.312-35.9375Q145.312-46.9727 141.895-57.0068Q138.477-67.041 132.3-75.415Q126.123-83.7891 117.749-89.9902Q109.375-96.1914 99.3408-99.585Q89.3066-102.979 78.2227-102.979Q67.2363-102.979 57.2021-99.585Q47.168-96.1914 38.7939-89.9902Q30.4199-83.7891 24.2432-75.415Q18.0664-67.041 14.6729-57.0068Q11.2793-46.9727 11.2793-35.9375Q11.2793-24.9023 14.6729-14.8926Q18.0664-4.88281 24.2432 3.51562Q30.4199 11.9141 38.8184 18.0664Q47.2168 24.2188 57.2266 27.6367Q67.2363 31.0547 78.2715 31.0547Z"/>
   <path class="multicolor-1:white hierarchical-1:primary SFSymbolsPreviewFFFFFF" d="M111.621-27.8809Q111.621-19.9219 108.301-13.9893Q104.98-8.05664 98.9746-4.78516Q92.9688-1.51367 85.0098-1.51367L75.5859-1.51367Q72.4609-1.51367 70.5811-3.24707Q68.7012-4.98047 68.7012-7.76367Q68.7012-10.5469 70.6055-12.2314Q72.5098-13.916 75.5371-13.916L85.0098-13.916Q91.3086-13.916 95.166-17.749Q99.0234-21.582 99.0234-27.8809Q99.0234-33.9844 95.166-37.7441Q91.3086-41.5039 84.9609-41.5039L66.0156-41.5039L61.084-41.8945L64.4531-39.5508L71.2891-33.7402Q73.1934-32.1289 73.1934-29.7852Q73.1934-27.3438 71.4355-25.6104Q69.6777-23.877 67.334-23.877Q64.8926-23.877 63.2812-25.4883L45.7031-43.2617Q43.8477-45.2148 43.8477-47.6562Q43.8477-50.0488 45.7031-52.002L63.2324-69.7266Q64.8926-71.4355 67.2363-71.4355Q69.5312-71.4355 71.3135-69.6777Q73.0957-67.9199 73.0957-65.5762Q73.0957-63.1836 71.2891-61.6211L65.0391-55.8594L61.0352-52.9297L66.0156-53.3691L84.9609-53.3691Q92.9688-53.3691 98.9502-50.1709Q104.932-46.9727 108.276-41.2354Q111.621-35.498 111.621-27.8809Z"/>
  </g>
  <g id="Bold-L" transform="matrix(1 0 0 1 2262.85 1556)">
   <path class="multicolor-0:tintColor hierarchical-0:tertiary SFSymbolsPreview007AFF" d="M77.0996 29.8828Q87.9395 29.8828 97.7783 26.5137Q107.617 23.1445 115.869 17.0898Q124.121 11.0352 130.176 2.7832Q136.23-5.46875 139.6-15.3076Q142.969-25.1465 142.969-35.9863Q142.969-46.8262 139.6-56.665Q136.23-66.5039 130.151-74.7314Q124.072-82.959 115.845-89.0381Q107.617-95.1172 97.7539-98.4619Q87.8906-101.807 77.0508-101.807Q66.2598-101.807 56.3965-98.4619Q46.5332-95.1172 38.3301-89.0381Q30.127-82.959 24.0479-74.7314Q17.9688-66.5039 14.624-56.665Q11.2793-46.8262 11.2793-35.9863Q11.2793-25.1465 14.624-15.3076Q17.9688-5.46875 24.0479 2.7832Q30.127 11.0352 38.3545 17.0898Q46.582 23.1445 56.4209 26.5137Q66.2598 29.8828 77.0996 29.8828Z"/>
   <path class="multicolor-1:white hierarchical-1:primary SFSymbolsPreviewFFFFFF" d="M109.766-28.2227Q109.766-20.5566 106.519-14.8193Q103.271-9.08203 97.4365-5.9082Q91.6016-2.73438 83.8379-2.73438L74.6094-2.73438Q71.9238-2.73438 70.2637-4.27246Q68.6035-5.81055 68.6035-8.25195Q68.6035-10.6934 70.2637-12.1826Q71.9238-13.6719 74.5605-13.6719L83.8379-13.6719Q90.4785-13.6719 94.6045-17.6758Q98.7305-21.6797 98.7305-28.2227Q98.7305-34.5703 94.6289-38.4521Q90.5273-42.334 83.7891-42.334L64.5996-42.334L59.1797-42.6758L62.4023-40.4297L69.8242-33.7402Q71.5332-32.1777 71.5332-30.0781Q71.5332-27.8809 69.9707-26.3184Q68.4082-24.7559 66.3086-24.7559Q64.0625-24.7559 62.5977-26.2695L45.459-43.6523Q43.7012-45.459 43.7012-47.7539Q43.7012-50 45.459-51.8066L62.5977-69.1406Q64.0625-70.7031 66.2109-70.7031Q68.3594-70.7031 69.9219-69.1406Q71.4844-67.5781 71.4844-65.4297Q71.4844-63.2812 69.8242-61.8164L63.0859-55.4688L59.1309-52.4902L64.5996-52.8809L83.7891-52.8809Q91.6016-52.8809 97.4365-49.8047Q103.271-46.7285 106.519-41.1865Q109.766-35.6445 109.766-28.2227Z"/>
  </g>
  <g id="Semibold-L" transform="matrix(1 0 0 1 1966.97 1556)">
   <path class="multicolor-0:tintColor hierarchical-0:tertiary SFSymbolsPreview007AFF" d="M76.2695 29.0527Q86.9629 29.0527 96.6797 25.7324Q106.396 22.4121 114.551 16.4307Q122.705 10.4492 128.687 2.29492Q134.668-5.85938 137.988-15.5762Q141.309-25.293 141.309-35.9863Q141.309-46.6797 137.988-56.3965Q134.668-66.1133 128.662-74.2432Q122.656-82.373 114.526-88.3789Q106.396-94.3848 96.6553-97.7051Q86.9141-101.025 76.2207-101.025Q65.5273-101.025 55.8105-97.7051Q46.0938-94.3848 37.9883-88.3789Q29.8828-82.373 23.877-74.2432Q17.8711-66.1133 14.5752-56.3965Q11.2793-46.6797 11.2793-35.9863Q11.2793-25.293 14.5996-15.5762Q17.9199-5.85938 23.9014 2.29492Q29.8828 10.4492 38.0127 16.4307Q46.1426 22.4121 55.8594 25.7324Q65.5762 29.0527 76.2695 29.0527Z"/>
   <path class="multicolor-1:white hierarchical-1:primary SFSymbolsPreviewFFFFFF" d="M108.447-28.4668Q108.447-20.9961 105.273-15.4053Q102.1-9.81445 96.3623-6.68945Q90.625-3.56445 83.0078-3.56445L73.9258-3.56445Q71.5332-3.56445 70.0439-4.95605Q68.5547-6.34766 68.5547-8.59375Q68.5547-10.791 70.0195-12.1338Q71.4844-13.4766 73.877-13.4766L83.0078-13.4766Q89.9414-13.4766 94.2139-17.6025Q98.4863-21.7285 98.4863-28.4668Q98.4863-34.9609 94.2383-38.916Q89.9902-42.8711 83.0078-42.8711L63.623-42.8711L57.8613-43.1641L60.9375-40.9668L68.7988-33.6914Q70.3613-32.2266 70.3613-30.2734Q70.3613-28.2227 68.9453-26.8066Q67.5293-25.3906 65.5762-25.3906Q63.5254-25.3906 62.1582-26.7578L45.2637-43.8965Q43.6035-45.6543 43.6035-47.8027Q43.6035-49.9512 45.2637-51.6602L62.1094-68.75Q63.4766-70.166 65.5273-70.166Q67.4805-70.166 68.8965-68.7256Q70.3125-67.2852 70.3125-65.2832Q70.3125-63.2812 68.7988-61.9141L61.7676-55.2246L57.8125-52.1973L63.623-52.4902L83.0078-52.4902Q90.625-52.4902 96.3379-49.5117Q102.051-46.5332 105.249-41.1133Q108.447-35.6934 108.447-28.4668Z"/>
  </g>
  <g id="Medium-L" transform="matrix(1 0 0 1 1670.87 1556)">
   <path class="multicolor-0:tintColor hierarchical-0:tertiary SFSymbolsPreview007AFF" d="M75.6836 28.418Q86.2305 28.418 95.8496 25.1221Q105.469 21.8262 113.55 15.8936Q121.631 9.96094 127.563 1.9043Q133.496-6.15234 136.792-15.7959Q140.088-25.4395 140.088-35.9863Q140.088-46.582 136.792-56.2012Q133.496-65.8203 127.539-73.877Q121.582-81.9336 113.525-87.8906Q105.469-93.8477 95.8252-97.1191Q86.1816-100.391 75.6348-100.391Q65.0391-100.391 55.4199-97.1191Q45.8008-93.8477 37.7441-87.8906Q29.6875-81.9336 23.7549-73.877Q17.8223-65.8203 14.5508-56.2012Q11.2793-46.582 11.2793-35.9863Q11.2793-25.4395 14.5508-15.7959Q17.8223-6.15234 23.7549 1.9043Q29.6875 9.96094 37.7686 15.8936Q45.8496 21.8262 55.4688 25.1221Q65.0879 28.418 75.6836 28.418Z"/>
   <path class="multicolor-1:white hierarchical-1:primary SFSymbolsPreviewFFFFFF" d="M107.422-28.6621Q107.422-21.2891 104.297-15.8203Q101.172-10.3516 95.5078-7.2998Q89.8438-4.24805 82.373-4.24805L73.4375-4.24805Q71.2402-4.24805 69.8486-5.51758Q68.457-6.78711 68.457-8.83789Q68.457-10.8398 69.7998-12.085Q71.1426-13.3301 73.3398-13.3301L82.373-13.3301Q89.4531-13.3301 93.8721-17.5537Q98.291-21.7773 98.291-28.6621Q98.291-35.2539 93.9209-39.2822Q89.5508-43.3105 82.373-43.3105L62.8418-43.3105L56.8359-43.5547L59.8145-41.4062L68.0176-33.6914Q69.4336-32.2266 69.4336-30.4199Q69.4336-28.5156 68.1396-27.1729Q66.8457-25.8301 65.0391-25.8301Q63.0371-25.8301 61.7676-27.1484L45.1172-44.1406Q43.5059-45.752 43.5059-47.8516Q43.5059-49.9023 45.1172-51.6113L61.7188-68.4082Q63.0371-69.7754 64.9414-69.7754Q66.8457-69.7754 68.1396-68.4326Q69.4336-67.0898 69.4336-65.1855Q69.4336-63.3301 68.0176-62.0117L60.6934-54.9805L56.7871-51.9531L62.8418-52.2461L82.373-52.2461Q89.8926-52.2461 95.5322-49.3164Q101.172-46.3867 104.297-41.0645Q107.422-35.7422 107.422-28.6621Z"/>
  </g>
  <g id="Regular-L" transform="matrix(1 0 0 1 1374.97 1556)">
   <path class="multicolor-0:tintColor hierarchical-0:tertiary SFSymbolsPreview007AFF" d="M74.8535 27.5879Q85.3027 27.5879 94.7998 24.3408Q104.297 21.0938 112.256 15.2344Q120.215 9.375 126.099 1.41602Q131.982-6.54297 135.229-16.0645Q138.477-25.5859 138.477-35.9863Q138.477-46.4355 135.229-55.9326Q131.982-65.4297 126.099-73.3887Q120.215-81.3477 112.256-87.2314Q104.297-93.1152 94.7754-96.3623Q85.2539-99.6094 74.8047-99.6094Q64.3555-99.6094 54.8584-96.3623Q45.3613-93.1152 37.4268-87.2314Q29.4922-81.3477 23.6084-73.3887Q17.7246-65.4297 14.502-55.9326Q11.2793-46.4355 11.2793-35.9863Q11.2793-25.5859 14.5264-16.0645Q17.7734-6.54297 23.6328 1.41602Q29.4922 9.375 37.4512 15.2344Q45.4102 21.0938 54.9072 24.3408Q64.4043 27.5879 74.8535 27.5879Z"/>
   <path class="multicolor-1:white hierarchical-1:primary SFSymbolsPreviewFFFFFF" d="M106.152-28.9062Q106.152-21.7285 103.076-16.3818Q100-11.0352 94.458-8.05664Q88.916-5.07812 81.543-5.07812L72.7539-5.07812Q70.8496-5.07812 69.6289-6.20117Q68.4082-7.32422 68.4082-9.13086Q68.4082-10.9375 69.5801-12.0361Q70.752-13.1348 72.6562-13.1348L81.543-13.1348Q88.916-13.1348 93.5059-17.4805Q98.0957-21.8262 98.0957-28.9062Q98.0957-35.6445 93.5547-39.7461Q89.0137-43.8477 81.5918-43.8477L61.8652-43.8477L55.5176-44.0918L58.3984-41.9922L66.9922-33.6426Q68.3105-32.2754 68.3105-30.6152Q68.3105-28.8574 67.1631-27.6611Q66.0156-26.4648 64.3066-26.4648Q62.5-26.4648 61.3281-27.6367L44.9219-44.3848Q43.4082-45.9473 43.4082-47.9004Q43.4082-49.8535 44.9219-51.4648L61.2793-68.0176Q62.4512-69.2383 64.2578-69.2383Q66.0156-69.2383 67.1631-68.042Q68.3105-66.8457 68.3105-65.0879Q68.3105-63.3789 66.9922-62.1582L59.375-54.7363L55.4688-51.6602L61.8652-51.9043L81.5918-51.9043Q88.9648-51.9043 94.4824-49.0479Q100-46.1914 103.076-41.0156Q106.152-35.8398 106.152-28.9062Z"/>
  </g>
  <g id="Light-L" transform="matrix(1 0 0 1 1079.18 1556)">
   <path class="multicolor-0:tintColor hierarchical-0:tertiary SFSymbolsPreview007AFF" d="M73.9258 26.6602Q84.2285 26.6602 93.6035 23.4619Q102.979 20.2637 110.815 14.502Q118.652 8.74023 124.438 0.90332Q130.225-6.93359 133.423-16.3086Q136.621-25.6836 136.621-35.9863Q136.621-46.2891 133.423-55.6641Q130.225-65.0391 124.438-72.876Q118.652-80.7129 110.815-86.499Q102.979-92.2852 93.6035-95.4834Q84.2285-98.6816 73.877-98.6816Q63.5742-98.6816 54.2236-95.4834Q44.873-92.2852 37.0361-86.499Q29.1992-80.7129 23.4131-72.876Q17.627-65.0391 14.4531-55.6641Q11.2793-46.2891 11.2793-35.9863Q11.2793-25.6836 14.4775-16.3086Q17.6758-6.93359 23.4375 0.90332Q29.1992 8.74023 37.0361 14.502Q44.873 20.2637 54.248 23.4619Q63.623 26.6602 73.9258 26.6602Z"/>
   <path class="multicolor-1:white hierarchical-1:primary SFSymbolsPreviewFFFFFF" d="M104.053-28.9062Q104.053-22.168 101.123-17.1387Q98.1934-12.1094 92.8955-9.30176Q87.5977-6.49414 80.5664-6.49414L71.3379-6.49414Q69.873-6.49414 68.9209-7.34863Q67.9688-8.20312 67.9688-9.66797Q67.9688-11.0352 68.8965-11.8896Q69.8242-12.7441 71.2402-12.7441L80.5664-12.7441Q88.2812-12.7441 93.042-17.2119Q97.8027-21.6797 97.8027-28.9062Q97.8027-35.9863 93.0664-40.2832Q88.3301-44.5801 80.5664-44.5801L59.082-44.5801L52.832-44.8242L55.6641-42.6758L65.5273-33.0078Q66.6016-31.8359 66.6016-30.5664Q66.6016-29.1992 65.7227-28.2715Q64.8438-27.3438 63.4766-27.3438Q62.1094-27.3438 61.1328-28.2715L44.9219-44.8242Q43.6523-46.1426 43.6523-47.7051Q43.6523-49.3164 44.9219-50.6348L61.084-67.0898Q62.0605-68.0176 63.4277-68.0176Q64.8438-68.0176 65.7227-67.0898Q66.6016-66.1621 66.6016-64.7949Q66.6016-63.4766 65.5273-62.4512L56.25-53.3691L52.832-50.6348L59.082-50.8301L80.5664-50.8301Q87.5977-50.8301 92.8955-48.1201Q98.1934-45.4102 101.123-40.4541Q104.053-35.498 104.053-28.9062Z"/>
  </g>
  <g id="Thin-L" transform="matrix(1 0 0 1 783.693 1556)">
   <path class="multicolor-0:tintColor hierarchical-0:tertiary SFSymbolsPreview007AFF" d="M72.7051 25.4395Q82.8613 25.4395 92.041 22.3145Q101.221 19.1895 108.911 13.5498Q116.602 7.91016 122.266 0.219727Q127.93-7.4707 131.055-16.6748Q134.18-25.8789 134.18-35.9863Q134.18-46.1426 131.055-55.3223Q127.93-64.502 122.29-72.1924Q116.65-79.8828 108.936-85.5469Q101.221-91.2109 92.0166-94.3359Q82.8125-97.4609 72.7051-97.4609Q62.5488-97.4609 53.3691-94.3359Q44.1895-91.2109 36.499-85.5469Q28.8086-79.8828 23.1689-72.1924Q17.5293-64.502 14.4043-55.3223Q11.2793-46.1426 11.2793-35.9863Q11.2793-25.8789 14.4043-16.6748Q17.5293-7.4707 23.1689 0.219727Q28.8086 7.91016 36.5234 13.5498Q44.2383 19.1895 53.418 22.3145Q62.5977 25.4395 72.7051 25.4395Z"/>
   <path class="multicolor-1:white hierarchical-1:primary SFSymbolsPreviewFFFFFF" d="M101.318-28.9062Q101.318-22.7539 98.5596-18.1396Q95.8008-13.5254 90.8203-10.9619Q85.8398-8.39844 79.248-8.39844L69.4336-8.39844Q68.6035-8.39844 68.0176-8.88672Q67.4316-9.375 67.4316-10.3027Q67.4316-11.1816 68.0176-11.7188Q68.6035-12.2559 69.4336-12.2559L79.248-12.2559Q87.4512-12.2559 92.4316-16.8457Q97.4121-21.4355 97.4121-28.9062Q97.4121-36.4258 92.4316-40.9912Q87.4512-45.5566 79.248-45.5566L55.4199-45.5566L49.3652-45.752L52.002-43.5547L63.623-32.1289Q64.4043-31.2988 64.4043-30.4688Q64.4043-29.6875 63.8428-29.0771Q63.2812-28.4668 62.4023-28.4668Q61.6211-28.4668 60.8887-29.1016L44.9219-45.4102Q43.9941-46.4355 43.9941-47.4609Q43.9941-48.6816 44.9219-49.5605L60.8887-65.8203Q61.5723-66.4062 62.4023-66.4062Q63.3301-66.4062 63.8672-65.8447Q64.4043-65.2832 64.4043-64.4043Q64.4043-63.5742 63.623-62.8418L52.1484-51.5137L49.3164-49.2188L55.4199-49.4141L79.248-49.4141Q85.8398-49.4141 90.8203-46.875Q95.8008-44.3359 98.5596-39.7217Q101.318-35.1074 101.318-28.9062Z"/>
  </g>
  <g id="Ultralight-L" transform="matrix(1 0 0 1 487.592 1556)">
   <path class="multicolor-0:tintColor hierarchical-0:tertiary SFSymbolsPreview007AFF" d="M72.0703 24.8047Q82.1289 24.8047 91.2354 21.7285Q100.342 18.6523 107.935 13.0615Q115.527 7.4707 121.143-0.146484Q126.758-7.76367 129.858-16.8457Q132.959-25.9277 132.959-35.9863Q132.959-46.0449 129.858-55.1514Q126.758-64.2578 121.167-71.8506Q115.576-79.4434 107.959-85.0586Q100.342-90.6738 91.2354-93.75Q82.1289-96.8262 72.0703-96.8262Q62.0605-96.8262 52.9541-93.75Q43.8477-90.6738 36.2305-85.0586Q28.6133-79.4434 23.0225-71.8506Q17.4316-64.2578 14.3555-55.1514Q11.2793-46.0449 11.2793-35.9863Q11.2793-25.9277 14.3555-16.8457Q17.4316-7.76367 23.0225-0.146484Q28.6133 7.4707 36.2305 13.0615Q43.8477 18.6523 52.9541 21.7285Q62.0605 24.8047 72.0703 24.8047Z"/>
   <path class="multicolor-1:white hierarchical-1:primary SFSymbolsPreviewFFFFFF" d="M99.9512-28.9062Q99.9512-23.0469 97.29-18.6523Q94.6289-14.2578 89.7949-11.792Q84.9609-9.32617 78.6133-9.32617L68.5059-9.32617Q68.0176-9.32617 67.6025-9.66797Q67.1875-10.0098 67.1875-10.6934Q67.1875-11.2793 67.5781-11.6455Q67.9688-12.0117 68.5059-12.0117L78.6133-12.0117Q87.0605-12.0117 92.1631-16.6748Q97.2656-21.3379 97.2656-28.9062Q97.2656-36.6211 92.1387-41.3574Q87.0117-46.0938 78.6133-46.0938L53.5645-46.0938L47.5586-46.2402L50.1953-44.043L62.6953-31.6895Q63.2812-31.0059 63.2812-30.4199Q63.2812-29.8828 62.915-29.4678Q62.5488-29.0527 61.8652-29.0527Q61.4258-29.0527 60.791-29.541L44.9219-45.7031Q44.1895-46.582 44.1895-47.3633Q44.1895-48.291 44.9219-49.0234L60.791-65.1855Q61.3281-65.625 61.8652-65.625Q62.5977-65.625 62.9395-65.21Q63.2812-64.7949 63.2812-64.209Q63.2812-63.623 62.6953-63.0371L50.0977-50.5859L47.5586-48.5352L53.5645-48.6816L78.6133-48.6816Q84.9609-48.6816 89.7949-46.2402Q94.6289-43.7988 97.29-39.3311Q99.9512-34.8633 99.9512-28.9062Z"/>
  </g>
  <g id="Black-M" transform="matrix(1 0 0 1 2871.32 1126)">
   <path class="multicolor-0:tintColor hierarchical-0:tertiary SFSymbolsPreview007AFF" d="M62.0605 17.5781Q73.0957 17.5781 82.7637 13.4277Q92.4316 9.27734 99.7559 1.92871Q107.08-5.41992 111.255-15.0635Q115.43-24.707 115.43-35.7422Q115.43-46.7773 111.255-56.4209Q107.08-66.0645 99.7559-73.4131Q92.4316-80.7617 82.7637-84.9121Q73.0957-89.0625 62.0605-89.0625Q51.0742-89.0625 41.4062-84.9121Q31.7383-80.7617 24.3896-73.4131Q17.041-66.0645 12.8906-56.4209Q8.74023-46.7773 8.74023-35.7422Q8.74023-24.707 12.8906-15.0635Q17.041-5.41992 24.3896 1.92871Q31.7383 9.27734 41.4062 13.4277Q51.0742 17.5781 62.0605 17.5781Z"/>
   <path class="multicolor-1:white hierarchical-1:primary SFSymbolsPreviewFFFFFF" d="M88.623-28.9551Q88.623-22.5586 85.9619-17.7979Q83.3008-13.0371 78.5156-10.376Q73.7305-7.71484 67.334-7.71484L59.5215-7.71484Q56.6895-7.71484 54.9805-9.30176Q53.2715-10.8887 53.2715-13.4277Q53.2715-15.918 55.0049-17.4316Q56.7383-18.9453 59.5703-18.9453L67.334-18.9453Q71.7773-18.9453 74.4629-21.6797Q77.1484-24.4141 77.1484-28.9551Q77.1484-33.4961 74.4385-36.3281Q71.7285-39.1602 67.1875-39.1602L52.3438-39.1602L49.2676-39.502L52.1484-37.5977L56.9824-33.8867Q58.6426-32.5684 58.6426-30.5664Q58.6426-28.4668 57.0557-26.9287Q55.4688-25.3906 53.5156-25.3906Q51.416-25.3906 50-26.8066L35.8398-41.0156Q34.3262-42.627 34.3262-44.6289Q34.3262-46.582 35.8398-48.1934L50-62.5Q51.4648-63.9648 53.3691-63.9648Q55.3223-63.9648 56.9336-62.4023Q58.5449-60.8398 58.5449-58.8379Q58.5449-56.7871 56.9824-55.4688L52.2461-51.2695L49.2188-49.2188L52.3438-49.6094L67.1875-49.6094Q73.6328-49.6094 78.4424-47.0215Q83.252-44.4336 85.9375-39.7949Q88.623-35.1562 88.623-28.9551Z"/>
  </g>
  <g id="Heavy-M" transform="matrix(1 0 0 1 2575.43 1126)">
   <path class="multicolor-0:tintColor hierarchical-0:tertiary SFSymbolsPreview007AFF" d="M61.2305 16.748Q72.0703 16.748 81.5918 12.6465Q91.1133 8.54492 98.3154 1.31836Q105.518-5.9082 109.644-15.4053Q113.77-24.9023 113.77-35.7422Q113.77-46.582 109.644-56.0791Q105.518-65.5762 98.3154-72.8271Q91.1133-80.0781 81.5918-84.1553Q72.0703-88.2324 61.2305-88.2324Q50.4395-88.2324 40.918-84.1553Q31.3965-80.0781 24.1699-72.8271Q16.9434-65.5762 12.8418-56.0791Q8.74023-46.582 8.74023-35.7422Q8.74023-24.9023 12.8418-15.4053Q16.9434-5.9082 24.1699 1.31836Q31.3965 8.54492 40.918 12.6465Q50.4395 16.748 61.2305 16.748Z"/>
   <path class="multicolor-1:white hierarchical-1:primary SFSymbolsPreviewFFFFFF" d="M87.4023-29.2969Q87.4023-22.998 84.79-18.335Q82.1777-13.6719 77.4658-11.084Q72.7539-8.49609 66.5039-8.49609L58.9844-8.49609Q56.3965-8.49609 54.834-9.93652Q53.2715-11.377 53.2715-13.7207Q53.2715-16.0156 54.834-17.4072Q56.3965-18.7988 58.9844-18.7988L66.5039-18.7988Q71.1914-18.7988 74.0479-21.6553Q76.9043-24.5117 76.9043-29.2969Q76.9043-33.9355 74.0479-36.8164Q71.1914-39.6973 66.4062-39.6973L51.709-39.6973L48.1445-39.9902L50.8789-38.1836L55.957-33.9844Q57.5195-32.7148 57.5195-30.8105Q57.5195-28.8574 56.0547-27.417Q54.5898-25.9766 52.7344-25.9766Q50.7812-25.9766 49.4141-27.2949L35.5957-41.2598Q34.1309-42.8223 34.1309-44.7266Q34.1309-46.6309 35.5957-48.1934L49.4141-62.207Q50.7812-63.5742 52.6367-63.5742Q54.4922-63.5742 55.9814-62.1094Q57.4707-60.6445 57.4707-58.7402Q57.4707-56.8359 55.957-55.5664L51.2207-51.2207L48.0957-49.0234L51.709-49.4141L66.4062-49.4141Q72.7051-49.4141 77.417-46.8994Q82.1289-44.3848 84.7656-39.8438Q87.4023-35.3027 87.4023-29.2969Z"/>
  </g>
  <g id="Bold-M" transform="matrix(1 0 0 1 2279.65 1126)">
   <path class="multicolor-0:tintColor hierarchical-0:tertiary SFSymbolsPreview007AFF" d="M60.3027 15.8203Q70.9473 15.8203 80.2734 11.792Q89.5996 7.76367 96.7041 0.634766Q103.809-6.49414 107.861-15.8203Q111.914-25.1465 111.914-35.791Q111.914-46.3867 107.861-55.7129Q103.809-65.0391 96.7041-72.168Q89.5996-79.2969 80.249-83.3252Q70.8984-87.3535 60.3027-87.3535Q49.707-87.3535 40.3564-83.3252Q31.0059-79.2969 23.9014-72.168Q16.7969-65.0391 12.7686-55.7129Q8.74023-46.3867 8.74023-35.791Q8.74023-25.1465 12.7686-15.8203Q16.7969-6.49414 23.9258 0.634766Q31.0547 7.76367 40.3809 11.792Q49.707 15.8203 60.3027 15.8203Z"/>
   <path class="multicolor-1:white hierarchical-1:primary SFSymbolsPreviewFFFFFF" d="M86.084-29.6387Q86.084-23.5352 83.5205-18.9941Q80.957-14.4531 76.3428-11.9141Q71.7285-9.375 65.5762-9.375L58.3984-9.375Q56.1035-9.375 54.7119-10.6689Q53.3203-11.9629 53.3203-14.0625Q53.3203-16.1133 54.7119-17.3828Q56.1035-18.6523 58.3496-18.6523L65.5762-18.6523Q70.5566-18.6523 73.6328-21.6553Q76.709-24.6582 76.709-29.6387Q76.709-34.4238 73.6572-37.3779Q70.6055-40.332 65.5273-40.332L50.9766-40.332L46.9238-40.5762L49.5117-38.8184L54.8828-34.1309Q56.2988-32.8613 56.2988-31.1035Q56.2988-29.2969 54.9805-27.9785Q53.6621-26.6602 51.9531-26.6602Q50.0488-26.6602 48.8281-27.8809L35.3516-41.5527Q33.9355-43.0176 33.9355-44.873Q33.9355-46.7285 35.3516-48.2422L48.8281-61.8652Q50.0977-63.1348 51.8555-63.1348Q53.6133-63.1348 54.9316-61.8164Q56.25-60.498 56.25-58.6914Q56.25-56.8848 54.8828-55.7129L50.0488-51.2207L46.875-48.877L50.9766-49.1699L65.5273-49.1699Q71.6797-49.1699 76.3184-46.7285Q80.957-44.2871 83.5205-39.8926Q86.084-35.498 86.084-29.6387Z"/>
  </g>
  <g id="Semibold-M" transform="matrix(1 0 0 1 1983.6 1126)">
   <path class="multicolor-0:tintColor hierarchical-0:tertiary SFSymbolsPreview007AFF" d="M59.668 15.1367Q70.1172 15.1367 79.3457 11.1572Q88.5742 7.17773 95.6055 0.146484Q102.637-6.88477 106.616-16.0889Q110.596-25.293 110.596-35.791Q110.596-46.2402 106.616-55.4443Q102.637-64.6484 95.6055-71.6797Q88.5742-78.7109 79.3457-82.7148Q70.1172-86.7188 59.6191-86.7188Q49.1699-86.7188 39.9658-82.7148Q30.7617-78.7109 23.7305-71.6797Q16.6992-64.6484 12.7197-55.4443Q8.74023-46.2402 8.74023-35.791Q8.74023-25.293 12.7197-16.0889Q16.6992-6.88477 23.7305 0.146484Q30.7617 7.17773 39.9902 11.1572Q49.2188 15.1367 59.668 15.1367Z"/>
   <path class="multicolor-1:white hierarchical-1:primary SFSymbolsPreviewFFFFFF" d="M85.0586-29.8828Q85.0586-23.877 82.5439-19.4092Q80.0293-14.9414 75.4639-12.4512Q70.8984-9.96094 64.8926-9.96094L57.9102-9.96094Q55.8105-9.96094 54.541-11.1572Q53.2715-12.3535 53.2715-14.3066Q53.2715-16.1621 54.5166-17.334Q55.7617-18.5059 57.8613-18.5059L64.8926-18.5059Q70.0684-18.5059 73.2666-21.6309Q76.4648-24.7559 76.4648-29.8828Q76.4648-34.7168 73.291-37.7197Q70.1172-40.7227 64.8926-40.7227L50.4395-40.7227L45.9961-40.9668L48.4863-39.2578L54.0527-34.1797Q55.3711-32.959 55.3711-31.2988Q55.3711-29.5898 54.1504-28.3447Q52.9297-27.0996 51.3184-27.0996Q49.5117-27.0996 48.3398-28.2715L35.1074-41.6992Q33.7402-43.1152 33.7402-44.9707Q33.7402-46.7285 35.1074-48.2422L48.291-61.6211Q49.5117-62.793 51.2207-62.793Q52.8809-62.793 54.126-61.5723Q55.3711-60.3516 55.3711-58.5938Q55.3711-56.8848 54.0527-55.7617L49.2188-51.1719L45.9473-48.7305L50.4395-49.0234L64.8926-49.0234Q70.8984-49.0234 75.4639-46.6309Q80.0293-44.2383 82.5439-39.9414Q85.0586-35.6445 85.0586-29.8828Z"/>
  </g>
  <g id="Medium-M" transform="matrix(1 0 0 1 1687.38 1126)">
   <path class="multicolor-0:tintColor hierarchical-0:tertiary SFSymbolsPreview007AFF" d="M59.1797 14.6484Q69.5312 14.6484 78.6621 10.6934Q87.793 6.73828 94.751-0.219727Q101.709-7.17773 105.664-16.3086Q109.619-25.4395 109.619-35.791Q109.619-46.1426 105.664-55.2734Q101.709-64.4043 94.751-71.3623Q87.793-78.3203 78.6377-82.2754Q69.4824-86.2305 59.1309-86.2305Q48.7793-86.2305 39.6484-82.2754Q30.5176-78.3203 23.584-71.3623Q16.6504-64.4043 12.6953-55.2734Q8.74023-46.1426 8.74023-35.791Q8.74023-25.4395 12.6953-16.3086Q16.6504-7.17773 23.6084-0.219727Q30.5664 6.73828 39.6973 10.6934Q48.8281 14.6484 59.1797 14.6484Z"/>
   <path class="multicolor-1:white hierarchical-1:primary SFSymbolsPreviewFFFFFF" d="M84.375-30.0781Q84.375-24.1699 81.8848-19.751Q79.3945-15.332 74.8779-12.8906Q70.3613-10.4492 64.4043-10.4492L57.6172-10.4492Q55.6641-10.4492 54.4678-11.5479Q53.2715-12.6465 53.2715-14.4531Q53.2715-16.2598 54.4434-17.334Q55.6152-18.4082 57.5195-18.4082L64.4043-18.4082Q69.7266-18.4082 73.0469-21.6064Q76.3672-24.8047 76.3672-30.0781Q76.3672-34.9609 73.0957-38.0127Q69.8242-41.0645 64.4043-41.0645L50.0488-41.0645L45.3613-41.2598L47.8027-39.5996L53.5156-34.2285Q54.7363-33.0566 54.7363-31.4453Q54.7363-29.7852 53.5889-28.6133Q52.4414-27.4414 50.8789-27.4414Q49.1211-27.4414 48.0469-28.5645L35.0098-41.8457Q33.6426-43.2129 33.6426-45.0195Q33.6426-46.7773 35.0098-48.2422L47.998-61.4258Q49.1211-62.5488 50.7812-62.5488Q52.4414-62.5488 53.5889-61.4014Q54.7363-60.2539 54.7363-58.5449Q54.7363-56.8848 53.5156-55.8105L48.584-51.1719L45.3125-48.6328L50.0488-48.877L64.4043-48.877Q70.4102-48.877 74.9023-46.5332Q79.3945-44.1895 81.8848-39.9414Q84.375-35.6934 84.375-30.0781Z"/>
  </g>
  <g id="Regular-M" transform="matrix(1 0 0 1 1391.3 1126)">
   <path class="multicolor-0:tintColor hierarchical-0:tertiary SFSymbolsPreview007AFF" d="M58.5449 14.0137Q68.75 14.0137 77.7588 10.1074Q86.7676 6.20117 93.6523-0.683594Q100.537-7.56836 104.443-16.5771Q108.35-25.5859 108.35-35.791Q108.35-45.9961 104.443-55.0049Q100.537-64.0137 93.6523-70.8984Q86.7676-77.7832 77.7344-81.6895Q68.7012-85.5957 58.4961-85.5957Q48.291-85.5957 39.2822-81.6895Q30.2734-77.7832 23.4131-70.8984Q16.5527-64.0137 12.6465-55.0049Q8.74023-45.9961 8.74023-35.791Q8.74023-25.5859 12.6465-16.5771Q16.5527-7.56836 23.4375-0.683594Q30.3223 6.20117 39.3311 10.1074Q48.3398 14.0137 58.5449 14.0137Z"/>
   <path class="multicolor-1:white hierarchical-1:primary SFSymbolsPreviewFFFFFF" d="M83.4473-30.3223Q83.4473-24.5117 80.9814-20.166Q78.5156-15.8203 74.0723-13.4277Q69.6289-11.0352 63.7695-11.0352L57.1777-11.0352Q55.4199-11.0352 54.3457-12.0361Q53.2715-13.0371 53.2715-14.6973Q53.2715-16.3086 54.3213-17.3096Q55.3711-18.3105 57.0801-18.3105L63.7695-18.3105Q69.2871-18.3105 72.7295-21.6064Q76.1719-24.9023 76.1719-30.3223Q76.1719-35.3027 72.7783-38.3789Q69.3848-41.4551 63.8184-41.4551L49.5605-41.4551L44.5312-41.6504L46.8262-40.0391L52.7344-34.3262Q53.9062-33.1543 53.9062-31.6406Q53.9062-30.0781 52.8564-28.9795Q51.8066-27.8809 50.293-27.8809Q48.6328-27.8809 47.6074-28.9551L34.8145-42.041Q33.4961-43.3594 33.4961-45.1172Q33.4961-46.8262 34.8145-48.2422L47.5586-61.1816Q48.6328-62.2559 50.2441-62.2559Q51.8066-62.2559 52.8564-61.1816Q53.9062-60.1074 53.9062-58.4961Q53.9062-56.9336 52.7344-55.9082L47.8027-51.123L44.4824-48.4863L49.5605-48.7305L63.8184-48.7305Q69.6777-48.7305 74.1211-46.4355Q78.5645-44.1406 81.0059-39.9902Q83.4473-35.8398 83.4473-30.3223Z"/>
  </g>
  <g id="Light-M" transform="matrix(1 0 0 1 1095.42 1126)">
   <path class="multicolor-0:tintColor hierarchical-0:tertiary SFSymbolsPreview007AFF" d="M57.7148 13.1836Q67.7734 13.1836 76.6357 9.35059Q85.498 5.51758 92.2607-1.24512Q99.0234-8.00781 102.856-16.8701Q106.689-25.7324 106.689-35.791Q106.689-45.8496 102.856-54.7119Q99.0234-63.5742 92.2607-70.3369Q85.498-77.0996 76.6113-80.9326Q67.7246-84.7656 57.666-84.7656Q47.6074-84.7656 38.7451-80.9326Q29.8828-77.0996 23.1445-70.3369Q16.4062-63.5742 12.5732-54.7119Q8.74023-45.8496 8.74023-35.791Q8.74023-25.7324 12.5732-16.8701Q16.4062-8.00781 23.1689-1.24512Q29.9316 5.51758 38.7939 9.35059Q47.6562 13.1836 57.7148 13.1836Z"/>
   <path class="multicolor-1:white hierarchical-1:primary SFSymbolsPreviewFFFFFF" d="M81.5918-30.3223Q81.5918-24.9023 79.248-20.8496Q76.9043-16.7969 72.6807-14.5508Q68.457-12.3047 62.8906-12.3047L55.9082-12.3047Q54.5898-12.3047 53.7598-13.0859Q52.9297-13.8672 52.9297-15.1367Q52.9297-16.4062 53.7354-17.1875Q54.541-17.9688 55.8594-17.9688L62.8906-17.9688Q68.75-17.9688 72.3389-21.3623Q75.9277-24.7559 75.9277-30.3223Q75.9277-35.5957 72.3633-38.8672Q68.7988-42.1387 62.9395-42.1387L47.0703-42.1387L42.1875-42.2852L44.3848-40.625L51.4648-33.7402Q52.3926-32.7637 52.3926-31.5918Q52.3926-30.3711 51.5869-29.5166Q50.7812-28.6621 49.5605-28.6621Q48.3398-28.6621 47.4609-29.4922L34.8145-42.4316Q33.7402-43.5547 33.7402-44.9707Q33.7402-46.3379 34.8145-47.5098L47.4121-60.3516Q48.291-61.1816 49.5117-61.1816Q50.7812-61.1816 51.5869-60.3271Q52.3926-59.4727 52.3926-58.252Q52.3926-57.0312 51.4648-56.1523L45.0195-49.9023L42.1387-47.5586L47.0703-47.7539L62.9395-47.7539Q68.5059-47.7539 72.7295-45.5811Q76.9531-43.4082 79.2725-39.4775Q81.5918-35.5469 81.5918-30.3223Z"/>
  </g>
  <g id="Thin-M" transform="matrix(1 0 0 1 799.782 1126)">
   <path class="multicolor-0:tintColor hierarchical-0:tertiary SFSymbolsPreview007AFF" d="M56.5918 12.0605Q66.5039 12.0605 75.1709 8.34961Q83.8379 4.63867 90.4297-1.97754Q97.0215-8.59375 100.781-17.2607Q104.541-25.9277 104.541-35.791Q104.541-45.6543 100.781-54.3213Q97.0215-62.9883 90.4297-69.6045Q83.8379-76.2207 75.1709-79.9316Q66.5039-83.6426 56.5918-83.6426Q46.7285-83.6426 38.0615-79.9316Q29.3945-76.2207 22.8271-69.6045Q16.2598-62.9883 12.5-54.3213Q8.74023-45.6543 8.74023-35.791Q8.74023-25.9277 12.4756-17.2607Q16.2109-8.59375 22.8027-1.97754Q29.3945 4.63867 38.0859 8.34961Q46.7773 12.0605 56.5918 12.0605Z"/>
   <path class="multicolor-1:white hierarchical-1:primary SFSymbolsPreviewFFFFFF" d="M79.1504-30.3223Q79.1504-25.3906 76.9531-21.7285Q74.7559-18.0664 70.8252-16.0156Q66.8945-13.9648 61.7188-13.9648L54.248-13.9648Q53.4668-13.9648 52.9297-14.4531Q52.3926-14.9414 52.3926-15.7715Q52.3926-16.5527 52.9297-17.0166Q53.4668-17.4805 54.1992-17.4805L61.7188-17.4805Q67.9688-17.4805 71.7773-21.0205Q75.5859-24.5605 75.5859-30.3223Q75.5859-35.9863 71.7773-39.502Q67.9688-43.0176 61.7188-43.0176L43.75-43.0176L39.0137-43.1152L41.1621-41.4551L49.7559-33.0078Q50.3906-32.2754 50.3906-31.543Q50.3906-30.7617 49.9023-30.2246Q49.4141-29.6875 48.584-29.6875Q47.9004-29.6875 47.2168-30.2734L34.7656-42.9688Q34.0332-43.7988 34.0332-44.7266Q34.0332-45.752 34.7656-46.5332L47.2168-59.2285Q47.8516-59.7168 48.584-59.7168Q49.4141-59.7168 49.9023-59.1797Q50.3906-58.6426 50.3906-57.9102Q50.3906-57.1289 49.7559-56.4941L41.3574-48.2422L39.0137-46.3379L43.75-46.4844L61.7188-46.4844Q66.8945-46.4844 70.8252-44.4824Q74.7559-42.4805 76.9531-38.8428Q79.1504-35.2051 79.1504-30.3223Z"/>
  </g>
  <g id="Ultralight-M" transform="matrix(1 0 0 1 503.632 1126)">
   <path class="multicolor-0:tintColor hierarchical-0:tertiary SFSymbolsPreview007AFF" d="M56.0547 11.5234Q65.8203 11.5234 74.3896 7.83691Q82.959 4.15039 89.4775-2.36816Q95.9961-8.88672 99.707-17.4561Q103.418-26.0254 103.418-35.791Q103.418-45.5566 99.707-54.126Q95.9961-62.6953 89.4775-69.2139Q82.959-75.7324 74.3896-79.4189Q65.8203-83.1055 56.0547-83.1055Q46.2891-83.1055 37.7197-79.4189Q29.1504-75.7324 22.6562-69.2139Q16.1621-62.6953 12.4512-54.126Q8.74023-45.5566 8.74023-35.791Q8.74023-26.0254 12.4268-17.4561Q16.1133-8.88672 22.6318-2.36816Q29.1504 4.15039 37.7197 7.83691Q46.2891 11.5234 56.0547 11.5234Z"/>
   <path class="multicolor-1:white hierarchical-1:primary SFSymbolsPreviewFFFFFF" d="M77.8809-30.3223Q77.8809-25.6348 75.7812-22.1924Q73.6816-18.75 69.8975-16.7969Q66.1133-14.8438 61.084-14.8438L53.3691-14.8438Q52.8809-14.8438 52.5146-15.1611Q52.1484-15.4785 52.1484-16.0645Q52.1484-16.6504 52.5146-16.9678Q52.8809-17.2852 53.3691-17.2852L61.084-17.2852Q67.5781-17.2852 71.4844-20.874Q75.3906-24.4629 75.3906-30.3223Q75.3906-36.2305 71.4844-39.8438Q67.5781-43.457 61.084-43.457L42.0898-43.457L37.4023-43.5547L39.4531-41.8457L48.877-32.6172Q49.3652-32.0312 49.3652-31.4941Q49.3652-31.0059 49.0234-30.6152Q48.6816-30.2246 48.0469-30.2246Q47.7051-30.2246 47.1191-30.6152L34.7656-43.2129Q34.1797-43.9453 34.1797-44.6289Q34.1797-45.4102 34.7656-46.0449L47.1191-58.6426Q47.6074-58.9844 48.0469-58.9844Q48.7305-58.9844 49.0479-58.6182Q49.3652-58.252 49.3652-57.7148Q49.3652-57.1777 48.877-56.6895L39.4531-47.4121L37.4023-45.7031L42.0898-45.8008L61.084-45.8008Q66.1133-45.8008 69.8975-43.8965Q73.6816-41.9922 75.7812-38.501Q77.8809-35.0098 77.8809-30.3223Z"/>
  </g>
  <g id="Black-S" transform="matrix(1 0 0 1 2884.57 696)">
   <path class="multicolor-0:tintColor hierarchical-0:tertiary SFSymbolsPreview007AFF" d="M48.8281 6.34766Q57.5195 6.34766 65.1123 3.07617Q72.7051-0.195312 78.4912-5.98145Q84.2773-11.7676 87.5488-19.3604Q90.8203-26.9531 90.8203-35.6445Q90.8203-44.3359 87.5488-51.9287Q84.2773-59.5215 78.4912-65.3076Q72.7051-71.0938 65.1123-74.3652Q57.5195-77.6367 48.8281-77.6367Q40.1367-77.6367 32.5439-74.3652Q24.9512-71.0938 19.165-65.3076Q13.3789-59.5215 10.1074-51.9287Q6.83594-44.3359 6.83594-35.6445Q6.83594-26.9531 10.1074-19.3604Q13.3789-11.7676 19.165-5.98145Q24.9512-0.195312 32.5439 3.07617Q40.1367 6.34766 48.8281 6.34766Z"/>
   <path class="multicolor-1:white hierarchical-1:primary SFSymbolsPreviewFFFFFF" d="M69.6777-30.2246Q69.6777-22.7051 65.0879-18.1152Q60.498-13.5254 52.9297-13.5254L46.7285-13.5254Q44.4824-13.5254 43.0908-14.7949Q41.6992-16.0645 41.6992-18.1152Q41.6992-20.1172 43.1152-21.3135Q44.5312-22.5098 46.7773-22.5098L52.9297-22.5098Q56.3965-22.5098 58.4473-24.6338Q60.498-26.7578 60.498-30.2246Q60.498-33.7891 58.3984-35.9863Q56.2988-38.1836 52.832-38.1836L41.0645-38.1836L38.7695-38.4766L41.0645-36.9629L44.873-34.1309Q46.1914-33.1055 46.1914-31.4941Q46.1914-29.834 44.9219-28.6133Q43.6523-27.3926 42.0898-27.3926Q40.4297-27.3926 39.3066-28.5156L28.125-39.7461Q26.9531-41.0156 26.9531-42.5781Q26.9531-44.0918 28.125-45.3613L39.3066-56.6406Q40.4785-57.8125 41.9922-57.8125Q43.5547-57.8125 44.8242-56.5674Q46.0938-55.3223 46.0938-53.7598Q46.0938-52.1484 44.873-51.0742L41.0645-47.7539L38.7695-46.1914L41.0645-46.5332L52.832-46.5332Q60.4004-46.5332 65.0391-42.041Q69.6777-37.5488 69.6777-30.2246Z"/>
  </g>
  <g id="Heavy-S" transform="matrix(1 0 0 1 2588.47 696)">
   <path class="multicolor-0:tintColor hierarchical-0:tertiary SFSymbolsPreview007AFF" d="M48.1934 5.71289Q56.7871 5.71289 64.2578 2.49023Q71.7285-0.732422 77.4414-6.44531Q83.1543-12.1582 86.377-19.6289Q89.5996-27.0996 89.5996-35.6445Q89.5996-44.1895 86.377-51.6846Q83.1543-59.1797 77.4414-64.8926Q71.7285-70.6055 64.2334-73.8281Q56.7383-77.0508 48.1934-77.0508Q39.6484-77.0508 32.1777-73.8281Q24.707-70.6055 18.9941-64.8926Q13.2812-59.1797 10.0586-51.6846Q6.83594-44.1895 6.83594-35.6445Q6.83594-27.0996 10.0586-19.6289Q13.2812-12.1582 18.9941-6.44531Q24.707-0.732422 32.2021 2.49023Q39.6973 5.71289 48.1934 5.71289Z"/>
   <path class="multicolor-1:white hierarchical-1:primary SFSymbolsPreviewFFFFFF" d="M68.8477-30.5176Q68.8477-23.0957 64.3311-18.5547Q59.8145-14.0137 52.3438-14.0137L46.4355-14.0137Q44.3359-14.0137 43.042-15.21Q41.748-16.4062 41.748-18.3105Q41.748-20.166 43.042-21.2891Q44.3359-22.4121 46.4355-22.4121L52.3438-22.4121Q55.957-22.4121 58.1299-24.6338Q60.3027-26.8555 60.3027-30.5176Q60.3027-34.1309 58.1055-36.3525Q55.9082-38.5742 52.2461-38.5742L40.8203-38.5742L38.1348-38.8184L40.2832-37.3535L44.1895-34.2773Q45.4102-33.3008 45.4102-31.7383Q45.4102-30.127 44.2383-28.9551Q43.0664-27.7832 41.5527-27.7832Q39.9414-27.7832 38.8672-28.9062L27.9297-39.8926Q26.7578-41.1621 26.7578-42.6758Q26.7578-44.1895 27.9297-45.459L38.8672-56.4941Q39.9414-57.6172 41.4551-57.6172Q42.9688-57.6172 44.165-56.4453Q45.3613-55.2734 45.3613-53.7109Q45.3613-52.1484 44.1895-51.123L40.5273-47.9004L38.1348-46.1914L40.8203-46.4844L52.2461-46.4844Q59.7168-46.4844 64.2822-42.0898Q68.8477-37.6953 68.8477-30.5176Z"/>
  </g>
  <g id="Bold-S" transform="matrix(1 0 0 1 2292.42 696)">
   <path class="multicolor-0:tintColor hierarchical-0:tertiary SFSymbolsPreview007AFF" d="M47.5586 5.0293Q55.957 5.0293 63.3057 1.85547Q70.6543-1.31836 76.2695-6.95801Q81.8848-12.5977 85.083-19.9463Q88.2812-27.2949 88.2812-35.6934Q88.2812-44.043 85.083-51.416Q81.8848-58.7891 76.2695-64.4043Q70.6543-70.0195 63.2812-73.1934Q55.9082-76.3672 47.5098-76.3672Q39.1602-76.3672 31.7871-73.1934Q24.4141-70.0195 18.8232-64.4043Q13.2324-58.7891 10.0342-51.416Q6.83594-44.043 6.83594-35.6934Q6.83594-27.2949 10.0342-19.9463Q13.2324-12.5977 18.8477-6.95801Q24.4629-1.31836 31.8115 1.85547Q39.1602 5.0293 47.5586 5.0293Z"/>
   <path class="multicolor-1:white hierarchical-1:primary SFSymbolsPreviewFFFFFF" d="M68.0176-30.8105Q68.0176-23.4863 63.5254-19.043Q59.0332-14.5996 51.6602-14.5996L46.0938-14.5996Q44.1895-14.5996 43.0176-15.6982Q41.8457-16.7969 41.8457-18.5059Q41.8457-20.2637 43.0176-21.3135Q44.1895-22.3633 46.0938-22.3633L51.6602-22.3633Q55.5176-22.3633 57.8369-24.6826Q60.1562-27.002 60.1562-30.8105Q60.1562-34.4727 57.8369-36.7432Q55.5176-39.0137 51.6602-39.0137L40.5762-39.0137L37.4512-39.2578L39.502-37.8418L43.457-34.4727Q44.5801-33.4961 44.5801-31.9824Q44.5801-30.4688 43.4814-29.3701Q42.3828-28.2715 40.9668-28.2715Q39.4043-28.2715 38.3789-29.2969L27.7344-40.0879Q26.5625-41.3086 26.5625-42.8223Q26.5625-44.3359 27.7344-45.6055L38.3789-56.2988Q39.4043-57.4219 40.8691-57.4219Q42.334-57.4219 43.4326-56.2988Q44.5312-55.1758 44.5312-53.7109Q44.5312-52.1973 43.457-51.2207L39.9414-48.0469L37.4023-46.1426L40.5762-46.4355L51.6602-46.4355Q59.0332-46.4355 63.5254-42.1387Q68.0176-37.8418 68.0176-30.8105Z"/>
  </g>
  <g id="Semibold-S" transform="matrix(1 0 0 1 1996.2 696)">
   <path class="multicolor-0:tintColor hierarchical-0:tertiary SFSymbolsPreview007AFF" d="M47.0703 4.54102Q55.3711 4.54102 62.6465 1.41602Q69.9219-1.70898 75.4639-7.2998Q81.0059-12.8906 84.1553-20.166Q87.3047-27.4414 87.3047-35.6934Q87.3047-43.9453 84.1553-51.2207Q81.0059-58.4961 75.4395-64.0625Q69.873-69.6289 62.5977-72.7783Q55.3223-75.9277 47.0215-75.9277Q38.7695-75.9277 31.4941-72.7783Q24.2188-69.6289 18.6768-64.0625Q13.1348-58.4961 9.98535-51.2207Q6.83594-43.9453 6.83594-35.6934Q6.83594-27.4414 9.98535-20.166Q13.1348-12.8906 18.7012-7.2998Q24.2676-1.70898 31.543 1.41602Q38.8184 4.54102 47.0703 4.54102Z"/>
   <path class="multicolor-1:white hierarchical-1:primary SFSymbolsPreviewFFFFFF" d="M67.334-31.0059Q67.334-23.7793 62.8906-19.3848Q58.4473-14.9902 51.123-14.9902L45.8008-14.9902Q44.043-14.9902 42.9199-16.0156Q41.7969-17.041 41.7969-18.6523Q41.7969-20.2637 42.8955-21.2646Q43.9941-22.2656 45.752-22.2656L51.123-22.2656Q55.127-22.2656 57.5439-24.6826Q59.9609-27.0996 59.9609-31.0059Q59.9609-34.7168 57.5439-37.0117Q55.127-39.3066 51.123-39.3066L40.332-39.3066L36.8652-39.502L38.8672-38.1836L42.8711-34.6191Q43.9453-33.5938 43.9453-32.1777Q43.9453-30.6641 42.8955-29.6143Q41.8457-28.5645 40.4785-28.5645Q38.9648-28.5645 37.9883-29.5898L27.4902-40.1855Q26.3672-41.4062 26.3672-42.9199Q26.3672-44.4336 27.4902-45.6543L37.9395-56.1523Q38.9648-57.2266 40.4297-57.2266Q41.8457-57.2266 42.8711-56.1768Q43.8965-55.127 43.8965-53.6621Q43.8965-52.1973 42.8711-51.2207L39.502-48.1445L36.8652-46.1426L40.332-46.3867L51.123-46.3867Q58.4473-46.3867 62.8906-42.1631Q67.334-37.9395 67.334-31.0059Z"/>
  </g>
  <g id="Medium-S" transform="matrix(1 0 0 1 1699.83 696)">
   <path class="multicolor-0:tintColor hierarchical-0:tertiary SFSymbolsPreview007AFF" d="M46.7285 4.19922Q54.9316 4.19922 62.1338 1.07422Q69.3359-2.05078 74.8535-7.56836Q80.3711-13.0859 83.4961-20.2881Q86.6211-27.4902 86.6211-35.6934Q86.6211-43.8477 83.4961-51.0742Q80.3711-58.3008 74.8291-63.8184Q69.2871-69.3359 62.085-72.4365Q54.8828-75.5371 46.6797-75.5371Q38.4766-75.5371 31.2744-72.4365Q24.0723-69.3359 18.5791-63.8184Q13.0859-58.3008 9.96094-51.0742Q6.83594-43.8477 6.83594-35.6934Q6.83594-27.4902 9.96094-20.2881Q13.0859-13.0859 18.6035-7.56836Q24.1211-2.05078 31.3232 1.07422Q38.5254 4.19922 46.7285 4.19922Z"/>
   <path class="multicolor-1:white hierarchical-1:primary SFSymbolsPreviewFFFFFF" d="M66.8945-31.2012Q66.8945-23.9746 62.4756-19.6289Q58.0566-15.2832 50.7812-15.2832L45.6543-15.2832Q43.9453-15.2832 42.8955-16.2598Q41.8457-17.2363 41.8457-18.75Q41.8457-20.3125 42.8955-21.2646Q43.9453-22.2168 45.5566-22.2168L50.7812-22.2168Q54.8828-22.2168 57.3975-24.6826Q59.9121-27.1484 59.9121-31.2012Q59.9121-34.9121 57.4219-37.207Q54.9316-39.502 50.8301-39.502L40.1855-39.502L36.5234-39.6973L38.4277-38.4277L42.4805-34.668Q43.5059-33.6914 43.5059-32.2754Q43.5059-30.8594 42.5049-29.834Q41.5039-28.8086 40.1855-28.8086Q38.6719-28.8086 37.7441-29.7852L27.3926-40.2832Q26.2695-41.4551 26.2695-42.9688Q26.2695-44.4824 27.3926-45.7031L37.6953-56.1035Q38.6719-57.1289 40.0879-57.1289Q41.5039-57.1289 42.5049-56.1035Q43.5059-55.0781 43.5059-53.6621Q43.5059-52.2461 42.4805-51.2695L39.1602-48.1934L36.4746-46.0938L40.1855-46.3379L50.8301-46.3379Q58.0566-46.3379 62.4756-42.1631Q66.8945-37.9883 66.8945-31.2012Z"/>
  </g>
  <g id="Regular-S" transform="matrix(1 0 0 1 1403.58 696)">
   <path class="multicolor-0:tintColor hierarchical-0:tertiary SFSymbolsPreview007AFF" d="M46.2402 3.71094Q54.3457 3.71094 61.4746 0.634766Q68.6035-2.44141 74.0479-7.91016Q79.4922-13.3789 82.5928-20.5078Q85.6934-27.6367 85.6934-35.6934Q85.6934-43.75 82.5928-50.8789Q79.4922-58.0078 74.0234-63.4766Q68.5547-68.9453 61.4258-72.0215Q54.2969-75.0977 46.1914-75.0977Q38.1348-75.0977 31.0059-72.0215Q23.877-68.9453 18.457-63.4766Q13.0371-58.0078 9.93652-50.8789Q6.83594-43.75 6.83594-35.6934Q6.83594-27.6367 9.93652-20.5078Q13.0371-13.3789 18.4814-7.91016Q23.9258-2.44141 31.0547 0.634766Q38.1836 3.71094 46.2402 3.71094Z"/>
   <path class="multicolor-1:white hierarchical-1:primary SFSymbolsPreviewFFFFFF" d="M66.2598-31.3965Q66.2598-24.2676 61.8896-19.9707Q57.5195-15.6738 50.3418-15.6738L45.4102-15.6738Q43.8477-15.6738 42.8711-16.5771Q41.8945-17.4805 41.8945-18.8965Q41.8945-20.3613 42.8467-21.2646Q43.7988-22.168 45.3125-22.168L50.3418-22.168Q54.541-22.168 57.1533-24.707Q59.7656-27.2461 59.7656-31.3965Q59.7656-35.1562 57.2021-37.4756Q54.6387-39.7949 50.3906-39.7949L39.9902-39.7949L36.0352-39.9902L37.8418-38.7207L41.9434-34.8145Q42.9199-33.8379 42.9199-32.4707Q42.9199-31.0547 41.9922-30.0781Q41.0645-29.1016 39.7461-29.1016Q38.2812-29.1016 37.4023-30.0781L27.2461-40.3809Q26.123-41.5527 26.123-43.0664Q26.123-44.5801 27.2461-45.8008L37.3535-55.957Q38.2812-56.9824 39.6973-56.9824Q41.0645-56.9824 41.9922-56.0059Q42.9199-55.0293 42.9199-53.6133Q42.9199-52.2461 41.9434-51.3184L38.7695-48.291L35.9863-46.0938L39.9902-46.2891L50.3906-46.2891Q57.5684-46.2891 61.9141-42.1875Q66.2598-38.0859 66.2598-31.3965Z"/>
  </g>
  <g id="Light-S" transform="matrix(1 0 0 1 1107.6 696)">
   <path class="multicolor-0:tintColor hierarchical-0:tertiary SFSymbolsPreview007AFF" d="M45.5078 2.97852Q53.4668 2.97852 60.4736-0.0244141Q67.4805-3.02734 72.8271-8.39844Q78.1738-13.7695 81.2012-20.752Q84.2285-27.7344 84.2285-35.6934Q84.2285-43.6523 81.2012-50.6348Q78.1738-57.6172 72.8027-62.9883Q67.4316-68.3594 60.4492-71.3623Q53.4668-74.3652 45.459-74.3652Q37.5488-74.3652 30.542-71.3623Q23.5352-68.3594 18.2129-62.9883Q12.8906-57.6172 9.86328-50.6348Q6.83594-43.6523 6.83594-35.6934Q6.83594-27.7344 9.86328-20.752Q12.8906-13.7695 18.2373-8.39844Q23.584-3.02734 30.5908-0.0244141Q37.5977 2.97852 45.5078 2.97852Z"/>
   <path class="multicolor-1:white hierarchical-1:primary SFSymbolsPreviewFFFFFF" d="M64.5996-31.3965Q64.5996-24.8047 60.4736-20.8008Q56.3477-16.7969 49.5605-16.7969L44.2871-16.7969Q43.0664-16.7969 42.3096-17.5049Q41.5527-18.2129 41.5527-19.3359Q41.5527-20.459 42.2852-21.167Q43.0176-21.875 44.1895-21.875L49.5605-21.875Q54.0039-21.875 56.7627-24.4873Q59.5215-27.0996 59.5215-31.3965Q59.5215-35.4492 56.8115-37.915Q54.1016-40.3809 49.6094-40.3809L37.793-40.3809L33.9355-40.5273L35.6934-39.2578L40.7715-34.2773Q41.6016-33.4961 41.6016-32.4219Q41.6016-31.3477 40.8691-30.5664Q40.1367-29.7852 39.1113-29.7852Q37.9883-29.7852 37.2559-30.5664L27.2461-40.7227Q26.3184-41.6992 26.3184-42.9199Q26.3184-44.1406 27.2461-45.166L37.207-55.2246Q37.9395-56.0059 39.0625-56.0059Q40.1367-56.0059 40.8691-55.249Q41.6016-54.4922 41.6016-53.3691Q41.6016-52.2949 40.7715-51.5625L36.2793-47.168L33.8867-45.2637L37.793-45.459L49.6094-45.459Q56.3477-45.459 60.4736-41.6016Q64.5996-37.7441 64.5996-31.3965Z"/>
  </g>
  <g id="Thin-S" transform="matrix(1 0 0 1 811.867 696)">
   <path class="multicolor-0:tintColor hierarchical-0:tertiary SFSymbolsPreview007AFF" d="M44.5312 2.00195Q52.3438 2.00195 59.1553-0.927734Q65.9668-3.85742 71.1914-9.08203Q76.416-14.3066 79.3457-21.1182Q82.2754-27.9297 82.2754-35.6934Q82.2754-43.457 79.3457-50.2686Q76.416-57.0801 71.1914-62.3047Q65.9668-67.5293 59.1553-70.459Q52.3438-73.3887 44.5312-73.3887Q36.7676-73.3887 29.9316-70.459Q23.0957-67.5293 17.9199-62.3047Q12.7441-57.0801 9.79004-50.2686Q6.83594-43.457 6.83594-35.6934Q6.83594-27.9297 9.79004-21.1182Q12.7441-14.3066 17.9199-9.08203Q23.0957-3.85742 29.9316-0.927734Q36.7676 2.00195 44.5312 2.00195Z"/>
   <path class="multicolor-1:white hierarchical-1:primary SFSymbolsPreviewFFFFFF" d="M62.4023-31.3965Q62.4023-25.4395 58.5693-21.875Q54.7363-18.3105 48.5352-18.3105L42.7734-18.3105Q42.041-18.3105 41.5771-18.7256Q41.1133-19.1406 41.1133-19.873Q41.1133-20.5566 41.5771-21.0205Q42.041-21.4844 42.7246-21.4844L48.5352-21.4844Q53.3203-21.4844 56.2744-24.2188Q59.2285-26.9531 59.2285-31.3965Q59.2285-35.791 56.2988-38.4766Q53.3691-41.1621 48.5352-41.1621L34.8633-41.1621L31.1523-41.3086L32.8125-39.9902L39.2578-33.6426Q39.7949-33.0078 39.7949-32.373Q39.7949-31.6895 39.3555-31.2012Q38.916-30.7129 38.2324-30.7129Q37.5488-30.7129 37.0117-31.25L27.2461-41.2109Q26.5625-41.9434 26.5625-42.7734Q26.5625-43.6035 27.2461-44.2871L37.0117-54.248Q37.5488-54.7363 38.1836-54.7363Q38.916-54.7363 39.3555-54.248Q39.7949-53.7598 39.7949-53.0762Q39.7949-52.3926 39.2578-51.8555L33.0078-45.7031L31.1035-44.1895L34.8633-44.3359L48.5352-44.3359Q54.7852-44.3359 58.5938-40.7959Q62.4023-37.2559 62.4023-31.3965Z"/>
  </g>
  <g id="Ultralight-S" transform="matrix(1 0 0 1 515.644 696)">
   <path class="multicolor-0:tintColor hierarchical-0:tertiary SFSymbolsPreview007AFF" d="M44.043 1.51367Q51.7578 1.51367 58.4717-1.36719Q65.1855-4.24805 70.3369-9.39941Q75.4883-14.5508 78.3936-21.2646Q81.2988-27.9785 81.2988-35.6934Q81.2988-43.4082 78.3936-50.1221Q75.4883-56.8359 70.3369-61.9873Q65.1855-67.1387 58.4717-70.0195Q51.7578-72.9004 44.043-72.9004Q36.377-72.9004 29.6387-70.0195Q22.9004-67.1387 17.7734-61.9873Q12.6465-56.8359 9.74121-50.1221Q6.83594-43.4082 6.83594-35.6934Q6.83594-27.9785 9.74121-21.2646Q12.6465-14.5508 17.7734-9.39941Q22.9004-4.24805 29.6387-1.36719Q36.377 1.51367 44.043 1.51367Z"/>
   <path class="multicolor-1:white hierarchical-1:primary SFSymbolsPreviewFFFFFF" d="M61.3281-31.3965Q61.3281-25.8301 57.6416-22.4609Q53.9551-19.0918 47.998-19.0918L41.9922-19.0918Q41.5039-19.0918 41.1865-19.3604Q40.8691-19.6289 40.8691-20.166Q40.8691-20.6543 41.1865-20.9473Q41.5039-21.2402 41.9922-21.2402L47.998-21.2402Q52.9785-21.2402 56.0303-24.0479Q59.082-26.8555 59.082-31.3965Q59.082-35.9863 56.0303-38.7695Q52.9785-41.5527 48.0469-41.5527L33.3984-41.5527L29.7363-41.6504L31.3477-40.332L38.4766-33.252Q38.916-32.8125 38.916-32.3242Q38.916-31.8848 38.5986-31.543Q38.2812-31.2012 37.793-31.2012Q37.3535-31.2012 36.9141-31.5918L27.2461-41.4551Q26.709-42.041 26.709-42.6758Q26.709-43.3105 27.2461-43.8477L36.9629-53.7109Q37.3047-54.0527 37.793-54.0527Q38.3301-54.0527 38.623-53.7354Q38.916-53.418 38.916-52.9297Q38.916-52.4414 38.4766-52.002L31.3477-44.9707L29.7363-43.6523L33.3984-43.75L48.0469-43.75Q53.9551-43.75 57.6416-40.3809Q61.3281-37.0117 61.3281-31.3965Z"/>
  </g>
 </g>
</svg>
